M48
; DRILL file {KiCad 9.0.0} date 2025-02-23T11:59:58-0800
; FORMAT={-:-/ absolute / inch / decimal}
; #@! TF.CreationDate,2025-02-23T11:59:58-08:00
; #@! TF.GenerationSoftware,Kicad,Pcbnew,9.0.0
; #@! TF.FileFunction,Plated,1,4,PTH
FMAT,2
INCH
; #@! TA.AperFunction,Plated,PTH,ComponentDrill
T1C0.0100
; #@! TA.AperFunction,Plated,PTH,ViaDrill
T2C0.0118
; #@! TA.AperFunction,Plated,PTH,ComponentDrill
T3C0.0130
; #@! TA.AperFunction,Plated,PTH,ViaDrill
T4C0.0150
; #@! TA.AperFunction,Plated,PTH,ComponentDrill
T5C0.0236
; #@! TA.AperFunction,Plated,PTH,ComponentDrill
T6C0.0315
; #@! TA.AperFunction,Plated,PTH,ComponentDrill
T7C0.0335
; #@! TA.AperFunction,Plated,PTH,ComponentDrill
T8C0.0402
%
G90
G05
T1
X5.0748Y-3.6488
X5.0748Y-3.7039
X5.1024Y-3.6213
X5.1024Y-3.6764
X5.1024Y-3.7315
X5.1299Y-3.6488
X5.1299Y-3.7039
X5.1575Y-3.6213
X5.1575Y-3.6764
X5.1575Y-3.7315
X5.185Y-3.6488
X5.185Y-3.7039
T2
X3.878Y-3.7874
X3.878Y-3.9921
X3.9134Y-3.8346
X4.0157Y-3.189
X4.1417Y-3.3228
X4.2598Y-3.189
X4.6772Y-3.9843
X4.7319Y-2.9114
X4.7319Y-3.1398
X4.7874Y-3.685
X4.8346Y-3.7165
X4.937Y-3.7953
X4.9764Y-3.7874
X4.9921Y-3.5748
X4.998Y-3.5354
X5.0472Y-3.3307
X5.0866Y-2.9685
X5.0866Y-3.0157
X5.0945Y-3.3307
X5.1276Y-3.1488
X5.1434Y-3.3448
X5.1732Y-3.3612
X5.2835Y-3.3613
X5.2913Y-2.9685
X5.2913Y-3.1654
X5.4252Y-3.2756
X5.455Y-3.2109
X5.4567Y-3.9843
X5.4724Y-3.7795
X5.4773Y-3.1887
X5.4882Y-2.9764
X5.497Y-3.7323
X5.5276Y-3.1384
X5.5276Y-3.685
X5.5276Y-3.7795
X5.5522Y-3.4331
X5.6063Y-3.7638
X5.6063Y-3.9449
X5.7165Y-2.7795
X5.7323Y-3.9606
X5.748Y-3.685
X5.7943Y-2.7795
X5.9291Y-2.4961
X5.9764Y-3.685
X6.3447Y-3.4754
X6.3447Y-3.624
X6.3937Y-3.748
X6.5259Y-2.6622
X6.5415Y-3.624
X6.5433Y-3.7559
X6.6193Y-3.5118
X6.622Y-2.7008
X6.6584Y-3.4813
X6.685Y-2.4488
X6.7244Y-3.4813
X6.8031Y-3.6063
X6.8185Y-3.5909
X6.825Y-3.5217
X6.8644Y-3.7106
X6.8644Y-3.7579
X6.937Y-3.4242
X6.937Y-3.4567
X7.4252Y-3.6693
X7.4272Y-3.624
X7.4616Y-3.503
X7.5276Y-3.8031
X7.624Y-3.624
X7.7106Y-3.498
X7.7559Y-3.4646
X7.7795Y-3.4173
X7.813Y-3.8209
X7.9075Y-3.5217
X7.9469Y-3.7106
X7.9469Y-3.7579
T3
X6.6516Y-3.6378
X6.6516Y-3.689
X6.7028Y-3.6378
X6.7028Y-3.689
X6.7539Y-3.6378
X6.7539Y-3.689
X7.7341Y-3.6378
X7.7341Y-3.689
X7.7852Y-3.6378
X7.7852Y-3.689
X7.8364Y-3.6378
X7.8364Y-3.689
T4
X3.4646Y-3.3465
X3.4646Y-3.5039
X3.4646Y-3.622
X3.4646Y-3.7402
X3.4646Y-3.8583
X3.4646Y-3.9764
X3.4646Y-4.1732
X3.5039Y-3.2283
X3.5827Y-4.2126
X3.622Y-3.189
X3.7402Y-4.2126
X3.7795Y-3.189
X3.8976Y-4.2126
X3.937Y-3.1496
X3.9567Y-3.2776
X4.0157Y-4.2126
X4.0945Y-3.1102
X4.1213Y-3.5197
X4.2126Y-3.0315
X4.2197Y-3.2992
X4.2315Y-3.3858
X4.2315Y-3.4803
X4.2315Y-3.5748
X4.267Y-3.2362
X4.2913Y-2.9134
X4.3654Y-3.2953
X4.3701Y-2.7953
X4.4094Y-2.3228
X4.4094Y-2.4409
X4.4094Y-2.5591
X4.4094Y-2.6772
X4.4205Y-3.2205
X4.4408Y-3.5104
X4.4882Y-2.2441
X4.6457Y-2.2047
X4.7638Y-2.2047
X4.8819Y-2.2047
X5.0Y-2.2047
X5.1181Y-2.2047
X5.2362Y-2.2047
X5.3543Y-2.2047
X5.4724Y-2.2047
X5.6693Y-2.874
X5.8661Y-2.874
X5.9843Y-2.2047
X6.0236Y-2.874
X6.063Y-4.2126
X6.1024Y-2.2047
X6.1843Y-2.6693
X6.2126Y-2.7244
X6.2126Y-2.9449
X6.2205Y-4.2126
X6.311Y-2.7244
X6.3289Y-4.0296
X6.3346Y-2.8031
X6.3346Y-2.8819
X6.3386Y-2.9803
X6.3386Y-4.2126
X6.3425Y-3.0787
X6.3425Y-3.1772
X6.378Y-2.2047
X6.4291Y-2.6732
X6.4567Y-4.2126
X6.4646Y-2.8819
X6.4724Y-2.9843
X6.4724Y-3.0787
X6.4724Y-3.1811
X6.4961Y-2.2047
X6.5748Y-4.2126
X6.6142Y-2.2047
X6.622Y-2.8465
X6.6929Y-4.0157
X6.6929Y-4.2126
X6.739Y-3.8423
X6.811Y-4.2126
X6.9291Y-2.2047
X6.9291Y-4.2126
X6.9685Y-4.0157
X7.0079Y-2.2047
X7.0472Y-4.2126
X7.126Y-2.2047
X7.2047Y-4.0157
X7.2047Y-4.2126
X7.2441Y-2.2047
X7.2441Y-2.4409
X7.2441Y-2.5984
X7.3228Y-4.2126
X7.3622Y-2.2047
X7.4409Y-2.4409
X7.4409Y-2.5984
X7.4409Y-2.7953
X7.4409Y-2.9921
X7.4409Y-3.189
X7.4409Y-3.3858
X7.4409Y-4.0157
X7.4409Y-4.2126
X7.5591Y-4.2126
X7.5984Y-2.2047
X7.6772Y-2.4409
X7.6772Y-2.6378
X7.6772Y-2.7953
X7.6772Y-2.9921
X7.6772Y-3.189
X7.6772Y-3.3858
X7.6772Y-4.0157
X7.6772Y-4.2126
X7.7165Y-2.2047
X7.7953Y-4.2126
X7.8346Y-2.2835
X7.874Y-4.0157
X7.9134Y-2.3622
X7.9134Y-2.4803
X7.9134Y-2.5984
X7.9134Y-4.2126
X7.9528Y-2.7559
X7.9921Y-2.874
X8.0315Y-4.2126
X8.0709Y-2.9921
X8.1496Y-4.2126
X8.189Y-3.0709
X8.2677Y-4.2126
X8.3071Y-3.1496
X8.3858Y-4.2126
X8.4252Y-3.189
X8.5039Y-4.2126
X8.5433Y-3.189
X8.622Y-4.2126
X8.6614Y-3.189
X8.7402Y-4.2126
X8.7795Y-3.2283
X8.8583Y-3.3071
X8.8583Y-3.3858
X8.8583Y-3.5039
X8.8583Y-3.622
X8.8583Y-3.7402
X8.8583Y-3.8583
X8.8583Y-3.9764
X8.8583Y-4.1732
T7
X5.6457Y-2.3622
X5.8425Y-2.3622
T8
X3.7705Y-3.561
X3.7705Y-3.6791
X3.7705Y-3.7972
X6.3644Y-3.9008
X6.4825Y-3.9008
X6.6006Y-3.9008
X6.7187Y-3.9008
X6.8368Y-3.9008
X6.9549Y-3.9008
X7.4469Y-3.9008
X7.565Y-3.9008
X7.6831Y-3.9008
X7.8012Y-3.9008
X7.9193Y-3.9008
X8.0374Y-3.9008
T5
X5.6063Y-2.2697G85X5.6063Y-2.2421
G05
X5.8819Y-2.2421G85X5.8819Y-2.2697
G05
T6
X6.8504Y-2.5669G85X6.8504Y-2.6535
G05
X7.0827Y-2.5G85X6.9961Y-2.5
G05
X7.0906Y-2.7283G85X6.9882Y-2.7283
G05
M30
