%TF.GenerationSoftware,KiCad,Pcbnew,9.0.0*%
%TF.CreationDate,2025-02-23T12:00:01-08:00*%
%TF.ProjectId,four_way_rotator,666f7572-5f77-4617-995f-726f7461746f,rev?*%
%TF.SameCoordinates,Original*%
%TF.FileFunction,Legend,Top*%
%TF.FilePolarity,Positive*%
%FSLAX46Y46*%
G04 Gerber Fmt 4.6, Leading zero omitted, Abs format (unit mm)*
G04 Created by KiCad (PCBNEW 9.0.0) date 2025-02-23 12:00:01*
%MOMM*%
%LPD*%
G01*
G04 APERTURE LIST*
%ADD10C,0.150000*%
%ADD11C,0.120000*%
G04 APERTURE END LIST*
D10*
X167633333Y-80989580D02*
X167585714Y-81037200D01*
X167585714Y-81037200D02*
X167442857Y-81084819D01*
X167442857Y-81084819D02*
X167347619Y-81084819D01*
X167347619Y-81084819D02*
X167204762Y-81037200D01*
X167204762Y-81037200D02*
X167109524Y-80941961D01*
X167109524Y-80941961D02*
X167061905Y-80846723D01*
X167061905Y-80846723D02*
X167014286Y-80656247D01*
X167014286Y-80656247D02*
X167014286Y-80513390D01*
X167014286Y-80513390D02*
X167061905Y-80322914D01*
X167061905Y-80322914D02*
X167109524Y-80227676D01*
X167109524Y-80227676D02*
X167204762Y-80132438D01*
X167204762Y-80132438D02*
X167347619Y-80084819D01*
X167347619Y-80084819D02*
X167442857Y-80084819D01*
X167442857Y-80084819D02*
X167585714Y-80132438D01*
X167585714Y-80132438D02*
X167633333Y-80180057D01*
X168538095Y-80084819D02*
X168061905Y-80084819D01*
X168061905Y-80084819D02*
X168014286Y-80561009D01*
X168014286Y-80561009D02*
X168061905Y-80513390D01*
X168061905Y-80513390D02*
X168157143Y-80465771D01*
X168157143Y-80465771D02*
X168395238Y-80465771D01*
X168395238Y-80465771D02*
X168490476Y-80513390D01*
X168490476Y-80513390D02*
X168538095Y-80561009D01*
X168538095Y-80561009D02*
X168585714Y-80656247D01*
X168585714Y-80656247D02*
X168585714Y-80894342D01*
X168585714Y-80894342D02*
X168538095Y-80989580D01*
X168538095Y-80989580D02*
X168490476Y-81037200D01*
X168490476Y-81037200D02*
X168395238Y-81084819D01*
X168395238Y-81084819D02*
X168157143Y-81084819D01*
X168157143Y-81084819D02*
X168061905Y-81037200D01*
X168061905Y-81037200D02*
X168014286Y-80989580D01*
X167633333Y-76059580D02*
X167585714Y-76107200D01*
X167585714Y-76107200D02*
X167442857Y-76154819D01*
X167442857Y-76154819D02*
X167347619Y-76154819D01*
X167347619Y-76154819D02*
X167204762Y-76107200D01*
X167204762Y-76107200D02*
X167109524Y-76011961D01*
X167109524Y-76011961D02*
X167061905Y-75916723D01*
X167061905Y-75916723D02*
X167014286Y-75726247D01*
X167014286Y-75726247D02*
X167014286Y-75583390D01*
X167014286Y-75583390D02*
X167061905Y-75392914D01*
X167061905Y-75392914D02*
X167109524Y-75297676D01*
X167109524Y-75297676D02*
X167204762Y-75202438D01*
X167204762Y-75202438D02*
X167347619Y-75154819D01*
X167347619Y-75154819D02*
X167442857Y-75154819D01*
X167442857Y-75154819D02*
X167585714Y-75202438D01*
X167585714Y-75202438D02*
X167633333Y-75250057D01*
X167966667Y-75154819D02*
X168633333Y-75154819D01*
X168633333Y-75154819D02*
X168204762Y-76154819D01*
X167633333Y-78339580D02*
X167585714Y-78387200D01*
X167585714Y-78387200D02*
X167442857Y-78434819D01*
X167442857Y-78434819D02*
X167347619Y-78434819D01*
X167347619Y-78434819D02*
X167204762Y-78387200D01*
X167204762Y-78387200D02*
X167109524Y-78291961D01*
X167109524Y-78291961D02*
X167061905Y-78196723D01*
X167061905Y-78196723D02*
X167014286Y-78006247D01*
X167014286Y-78006247D02*
X167014286Y-77863390D01*
X167014286Y-77863390D02*
X167061905Y-77672914D01*
X167061905Y-77672914D02*
X167109524Y-77577676D01*
X167109524Y-77577676D02*
X167204762Y-77482438D01*
X167204762Y-77482438D02*
X167347619Y-77434819D01*
X167347619Y-77434819D02*
X167442857Y-77434819D01*
X167442857Y-77434819D02*
X167585714Y-77482438D01*
X167585714Y-77482438D02*
X167633333Y-77530057D01*
X168204762Y-77863390D02*
X168109524Y-77815771D01*
X168109524Y-77815771D02*
X168061905Y-77768152D01*
X168061905Y-77768152D02*
X168014286Y-77672914D01*
X168014286Y-77672914D02*
X168014286Y-77625295D01*
X168014286Y-77625295D02*
X168061905Y-77530057D01*
X168061905Y-77530057D02*
X168109524Y-77482438D01*
X168109524Y-77482438D02*
X168204762Y-77434819D01*
X168204762Y-77434819D02*
X168395238Y-77434819D01*
X168395238Y-77434819D02*
X168490476Y-77482438D01*
X168490476Y-77482438D02*
X168538095Y-77530057D01*
X168538095Y-77530057D02*
X168585714Y-77625295D01*
X168585714Y-77625295D02*
X168585714Y-77672914D01*
X168585714Y-77672914D02*
X168538095Y-77768152D01*
X168538095Y-77768152D02*
X168490476Y-77815771D01*
X168490476Y-77815771D02*
X168395238Y-77863390D01*
X168395238Y-77863390D02*
X168204762Y-77863390D01*
X168204762Y-77863390D02*
X168109524Y-77911009D01*
X168109524Y-77911009D02*
X168061905Y-77958628D01*
X168061905Y-77958628D02*
X168014286Y-78053866D01*
X168014286Y-78053866D02*
X168014286Y-78244342D01*
X168014286Y-78244342D02*
X168061905Y-78339580D01*
X168061905Y-78339580D02*
X168109524Y-78387200D01*
X168109524Y-78387200D02*
X168204762Y-78434819D01*
X168204762Y-78434819D02*
X168395238Y-78434819D01*
X168395238Y-78434819D02*
X168490476Y-78387200D01*
X168490476Y-78387200D02*
X168538095Y-78339580D01*
X168538095Y-78339580D02*
X168585714Y-78244342D01*
X168585714Y-78244342D02*
X168585714Y-78053866D01*
X168585714Y-78053866D02*
X168538095Y-77958628D01*
X168538095Y-77958628D02*
X168490476Y-77911009D01*
X168490476Y-77911009D02*
X168395238Y-77863390D01*
X169257142Y-74359580D02*
X169209523Y-74407200D01*
X169209523Y-74407200D02*
X169066666Y-74454819D01*
X169066666Y-74454819D02*
X168971428Y-74454819D01*
X168971428Y-74454819D02*
X168828571Y-74407200D01*
X168828571Y-74407200D02*
X168733333Y-74311961D01*
X168733333Y-74311961D02*
X168685714Y-74216723D01*
X168685714Y-74216723D02*
X168638095Y-74026247D01*
X168638095Y-74026247D02*
X168638095Y-73883390D01*
X168638095Y-73883390D02*
X168685714Y-73692914D01*
X168685714Y-73692914D02*
X168733333Y-73597676D01*
X168733333Y-73597676D02*
X168828571Y-73502438D01*
X168828571Y-73502438D02*
X168971428Y-73454819D01*
X168971428Y-73454819D02*
X169066666Y-73454819D01*
X169066666Y-73454819D02*
X169209523Y-73502438D01*
X169209523Y-73502438D02*
X169257142Y-73550057D01*
X170209523Y-74454819D02*
X169638095Y-74454819D01*
X169923809Y-74454819D02*
X169923809Y-73454819D01*
X169923809Y-73454819D02*
X169828571Y-73597676D01*
X169828571Y-73597676D02*
X169733333Y-73692914D01*
X169733333Y-73692914D02*
X169638095Y-73740533D01*
X170828571Y-73454819D02*
X170923809Y-73454819D01*
X170923809Y-73454819D02*
X171019047Y-73502438D01*
X171019047Y-73502438D02*
X171066666Y-73550057D01*
X171066666Y-73550057D02*
X171114285Y-73645295D01*
X171114285Y-73645295D02*
X171161904Y-73835771D01*
X171161904Y-73835771D02*
X171161904Y-74073866D01*
X171161904Y-74073866D02*
X171114285Y-74264342D01*
X171114285Y-74264342D02*
X171066666Y-74359580D01*
X171066666Y-74359580D02*
X171019047Y-74407200D01*
X171019047Y-74407200D02*
X170923809Y-74454819D01*
X170923809Y-74454819D02*
X170828571Y-74454819D01*
X170828571Y-74454819D02*
X170733333Y-74407200D01*
X170733333Y-74407200D02*
X170685714Y-74359580D01*
X170685714Y-74359580D02*
X170638095Y-74264342D01*
X170638095Y-74264342D02*
X170590476Y-74073866D01*
X170590476Y-74073866D02*
X170590476Y-73835771D01*
X170590476Y-73835771D02*
X170638095Y-73645295D01*
X170638095Y-73645295D02*
X170685714Y-73550057D01*
X170685714Y-73550057D02*
X170733333Y-73502438D01*
X170733333Y-73502438D02*
X170828571Y-73454819D01*
X115343032Y-91454819D02*
X115343032Y-90454819D01*
X115343032Y-90454819D02*
X115581127Y-90454819D01*
X115581127Y-90454819D02*
X115723984Y-90502438D01*
X115723984Y-90502438D02*
X115819222Y-90597676D01*
X115819222Y-90597676D02*
X115866841Y-90692914D01*
X115866841Y-90692914D02*
X115914460Y-90883390D01*
X115914460Y-90883390D02*
X115914460Y-91026247D01*
X115914460Y-91026247D02*
X115866841Y-91216723D01*
X115866841Y-91216723D02*
X115819222Y-91311961D01*
X115819222Y-91311961D02*
X115723984Y-91407200D01*
X115723984Y-91407200D02*
X115581127Y-91454819D01*
X115581127Y-91454819D02*
X115343032Y-91454819D01*
X116771603Y-90454819D02*
X116581127Y-90454819D01*
X116581127Y-90454819D02*
X116485889Y-90502438D01*
X116485889Y-90502438D02*
X116438270Y-90550057D01*
X116438270Y-90550057D02*
X116343032Y-90692914D01*
X116343032Y-90692914D02*
X116295413Y-90883390D01*
X116295413Y-90883390D02*
X116295413Y-91264342D01*
X116295413Y-91264342D02*
X116343032Y-91359580D01*
X116343032Y-91359580D02*
X116390651Y-91407200D01*
X116390651Y-91407200D02*
X116485889Y-91454819D01*
X116485889Y-91454819D02*
X116676365Y-91454819D01*
X116676365Y-91454819D02*
X116771603Y-91407200D01*
X116771603Y-91407200D02*
X116819222Y-91359580D01*
X116819222Y-91359580D02*
X116866841Y-91264342D01*
X116866841Y-91264342D02*
X116866841Y-91026247D01*
X116866841Y-91026247D02*
X116819222Y-90931009D01*
X116819222Y-90931009D02*
X116771603Y-90883390D01*
X116771603Y-90883390D02*
X116676365Y-90835771D01*
X116676365Y-90835771D02*
X116485889Y-90835771D01*
X116485889Y-90835771D02*
X116390651Y-90883390D01*
X116390651Y-90883390D02*
X116343032Y-90931009D01*
X116343032Y-90931009D02*
X116295413Y-91026247D01*
X111461904Y-92454819D02*
X110985714Y-92454819D01*
X110985714Y-92454819D02*
X110938095Y-92931009D01*
X110938095Y-92931009D02*
X110985714Y-92883390D01*
X110985714Y-92883390D02*
X111080952Y-92835771D01*
X111080952Y-92835771D02*
X111319047Y-92835771D01*
X111319047Y-92835771D02*
X111414285Y-92883390D01*
X111414285Y-92883390D02*
X111461904Y-92931009D01*
X111461904Y-92931009D02*
X111509523Y-93026247D01*
X111509523Y-93026247D02*
X111509523Y-93264342D01*
X111509523Y-93264342D02*
X111461904Y-93359580D01*
X111461904Y-93359580D02*
X111414285Y-93407200D01*
X111414285Y-93407200D02*
X111319047Y-93454819D01*
X111319047Y-93454819D02*
X111080952Y-93454819D01*
X111080952Y-93454819D02*
X110985714Y-93407200D01*
X110985714Y-93407200D02*
X110938095Y-93359580D01*
X111842857Y-92788152D02*
X112080952Y-93454819D01*
X112080952Y-93454819D02*
X112319047Y-92788152D01*
X113461905Y-93454819D02*
X113461905Y-92454819D01*
X113461905Y-92454819D02*
X113842857Y-92454819D01*
X113842857Y-92454819D02*
X113938095Y-92502438D01*
X113938095Y-92502438D02*
X113985714Y-92550057D01*
X113985714Y-92550057D02*
X114033333Y-92645295D01*
X114033333Y-92645295D02*
X114033333Y-92788152D01*
X114033333Y-92788152D02*
X113985714Y-92883390D01*
X113985714Y-92883390D02*
X113938095Y-92931009D01*
X113938095Y-92931009D02*
X113842857Y-92978628D01*
X113842857Y-92978628D02*
X113461905Y-92978628D01*
X114604762Y-93454819D02*
X114509524Y-93407200D01*
X114509524Y-93407200D02*
X114461905Y-93359580D01*
X114461905Y-93359580D02*
X114414286Y-93264342D01*
X114414286Y-93264342D02*
X114414286Y-92978628D01*
X114414286Y-92978628D02*
X114461905Y-92883390D01*
X114461905Y-92883390D02*
X114509524Y-92835771D01*
X114509524Y-92835771D02*
X114604762Y-92788152D01*
X114604762Y-92788152D02*
X114747619Y-92788152D01*
X114747619Y-92788152D02*
X114842857Y-92835771D01*
X114842857Y-92835771D02*
X114890476Y-92883390D01*
X114890476Y-92883390D02*
X114938095Y-92978628D01*
X114938095Y-92978628D02*
X114938095Y-93264342D01*
X114938095Y-93264342D02*
X114890476Y-93359580D01*
X114890476Y-93359580D02*
X114842857Y-93407200D01*
X114842857Y-93407200D02*
X114747619Y-93454819D01*
X114747619Y-93454819D02*
X114604762Y-93454819D01*
X115271429Y-92788152D02*
X115461905Y-93454819D01*
X115461905Y-93454819D02*
X115652381Y-92978628D01*
X115652381Y-92978628D02*
X115842857Y-93454819D01*
X115842857Y-93454819D02*
X116033333Y-92788152D01*
X116795238Y-93407200D02*
X116700000Y-93454819D01*
X116700000Y-93454819D02*
X116509524Y-93454819D01*
X116509524Y-93454819D02*
X116414286Y-93407200D01*
X116414286Y-93407200D02*
X116366667Y-93311961D01*
X116366667Y-93311961D02*
X116366667Y-92931009D01*
X116366667Y-92931009D02*
X116414286Y-92835771D01*
X116414286Y-92835771D02*
X116509524Y-92788152D01*
X116509524Y-92788152D02*
X116700000Y-92788152D01*
X116700000Y-92788152D02*
X116795238Y-92835771D01*
X116795238Y-92835771D02*
X116842857Y-92931009D01*
X116842857Y-92931009D02*
X116842857Y-93026247D01*
X116842857Y-93026247D02*
X116366667Y-93121485D01*
X117271429Y-93454819D02*
X117271429Y-92788152D01*
X117271429Y-92978628D02*
X117319048Y-92883390D01*
X117319048Y-92883390D02*
X117366667Y-92835771D01*
X117366667Y-92835771D02*
X117461905Y-92788152D01*
X117461905Y-92788152D02*
X117557143Y-92788152D01*
X97588095Y-102304819D02*
X97588095Y-103114342D01*
X97588095Y-103114342D02*
X97635714Y-103209580D01*
X97635714Y-103209580D02*
X97683333Y-103257200D01*
X97683333Y-103257200D02*
X97778571Y-103304819D01*
X97778571Y-103304819D02*
X97969047Y-103304819D01*
X97969047Y-103304819D02*
X98064285Y-103257200D01*
X98064285Y-103257200D02*
X98111904Y-103209580D01*
X98111904Y-103209580D02*
X98159523Y-103114342D01*
X98159523Y-103114342D02*
X98159523Y-102304819D01*
X98540476Y-102304819D02*
X99159523Y-102304819D01*
X99159523Y-102304819D02*
X98826190Y-102685771D01*
X98826190Y-102685771D02*
X98969047Y-102685771D01*
X98969047Y-102685771D02*
X99064285Y-102733390D01*
X99064285Y-102733390D02*
X99111904Y-102781009D01*
X99111904Y-102781009D02*
X99159523Y-102876247D01*
X99159523Y-102876247D02*
X99159523Y-103114342D01*
X99159523Y-103114342D02*
X99111904Y-103209580D01*
X99111904Y-103209580D02*
X99064285Y-103257200D01*
X99064285Y-103257200D02*
X98969047Y-103304819D01*
X98969047Y-103304819D02*
X98683333Y-103304819D01*
X98683333Y-103304819D02*
X98588095Y-103257200D01*
X98588095Y-103257200D02*
X98540476Y-103209580D01*
X98689460Y-82054819D02*
X98356127Y-81578628D01*
X98118032Y-82054819D02*
X98118032Y-81054819D01*
X98118032Y-81054819D02*
X98498984Y-81054819D01*
X98498984Y-81054819D02*
X98594222Y-81102438D01*
X98594222Y-81102438D02*
X98641841Y-81150057D01*
X98641841Y-81150057D02*
X98689460Y-81245295D01*
X98689460Y-81245295D02*
X98689460Y-81388152D01*
X98689460Y-81388152D02*
X98641841Y-81483390D01*
X98641841Y-81483390D02*
X98594222Y-81531009D01*
X98594222Y-81531009D02*
X98498984Y-81578628D01*
X98498984Y-81578628D02*
X98118032Y-81578628D01*
X99022794Y-81054819D02*
X99641841Y-81054819D01*
X99641841Y-81054819D02*
X99308508Y-81435771D01*
X99308508Y-81435771D02*
X99451365Y-81435771D01*
X99451365Y-81435771D02*
X99546603Y-81483390D01*
X99546603Y-81483390D02*
X99594222Y-81531009D01*
X99594222Y-81531009D02*
X99641841Y-81626247D01*
X99641841Y-81626247D02*
X99641841Y-81864342D01*
X99641841Y-81864342D02*
X99594222Y-81959580D01*
X99594222Y-81959580D02*
X99546603Y-82007200D01*
X99546603Y-82007200D02*
X99451365Y-82054819D01*
X99451365Y-82054819D02*
X99165651Y-82054819D01*
X99165651Y-82054819D02*
X99070413Y-82007200D01*
X99070413Y-82007200D02*
X99022794Y-81959580D01*
X155633333Y-68409580D02*
X155585714Y-68457200D01*
X155585714Y-68457200D02*
X155442857Y-68504819D01*
X155442857Y-68504819D02*
X155347619Y-68504819D01*
X155347619Y-68504819D02*
X155204762Y-68457200D01*
X155204762Y-68457200D02*
X155109524Y-68361961D01*
X155109524Y-68361961D02*
X155061905Y-68266723D01*
X155061905Y-68266723D02*
X155014286Y-68076247D01*
X155014286Y-68076247D02*
X155014286Y-67933390D01*
X155014286Y-67933390D02*
X155061905Y-67742914D01*
X155061905Y-67742914D02*
X155109524Y-67647676D01*
X155109524Y-67647676D02*
X155204762Y-67552438D01*
X155204762Y-67552438D02*
X155347619Y-67504819D01*
X155347619Y-67504819D02*
X155442857Y-67504819D01*
X155442857Y-67504819D02*
X155585714Y-67552438D01*
X155585714Y-67552438D02*
X155633333Y-67600057D01*
X156490476Y-67504819D02*
X156300000Y-67504819D01*
X156300000Y-67504819D02*
X156204762Y-67552438D01*
X156204762Y-67552438D02*
X156157143Y-67600057D01*
X156157143Y-67600057D02*
X156061905Y-67742914D01*
X156061905Y-67742914D02*
X156014286Y-67933390D01*
X156014286Y-67933390D02*
X156014286Y-68314342D01*
X156014286Y-68314342D02*
X156061905Y-68409580D01*
X156061905Y-68409580D02*
X156109524Y-68457200D01*
X156109524Y-68457200D02*
X156204762Y-68504819D01*
X156204762Y-68504819D02*
X156395238Y-68504819D01*
X156395238Y-68504819D02*
X156490476Y-68457200D01*
X156490476Y-68457200D02*
X156538095Y-68409580D01*
X156538095Y-68409580D02*
X156585714Y-68314342D01*
X156585714Y-68314342D02*
X156585714Y-68076247D01*
X156585714Y-68076247D02*
X156538095Y-67981009D01*
X156538095Y-67981009D02*
X156490476Y-67933390D01*
X156490476Y-67933390D02*
X156395238Y-67885771D01*
X156395238Y-67885771D02*
X156204762Y-67885771D01*
X156204762Y-67885771D02*
X156109524Y-67933390D01*
X156109524Y-67933390D02*
X156061905Y-67981009D01*
X156061905Y-67981009D02*
X156014286Y-68076247D01*
X103557142Y-94359580D02*
X103509523Y-94407200D01*
X103509523Y-94407200D02*
X103366666Y-94454819D01*
X103366666Y-94454819D02*
X103271428Y-94454819D01*
X103271428Y-94454819D02*
X103128571Y-94407200D01*
X103128571Y-94407200D02*
X103033333Y-94311961D01*
X103033333Y-94311961D02*
X102985714Y-94216723D01*
X102985714Y-94216723D02*
X102938095Y-94026247D01*
X102938095Y-94026247D02*
X102938095Y-93883390D01*
X102938095Y-93883390D02*
X102985714Y-93692914D01*
X102985714Y-93692914D02*
X103033333Y-93597676D01*
X103033333Y-93597676D02*
X103128571Y-93502438D01*
X103128571Y-93502438D02*
X103271428Y-93454819D01*
X103271428Y-93454819D02*
X103366666Y-93454819D01*
X103366666Y-93454819D02*
X103509523Y-93502438D01*
X103509523Y-93502438D02*
X103557142Y-93550057D01*
X104509523Y-94454819D02*
X103938095Y-94454819D01*
X104223809Y-94454819D02*
X104223809Y-93454819D01*
X104223809Y-93454819D02*
X104128571Y-93597676D01*
X104128571Y-93597676D02*
X104033333Y-93692914D01*
X104033333Y-93692914D02*
X103938095Y-93740533D01*
X104842857Y-93454819D02*
X105461904Y-93454819D01*
X105461904Y-93454819D02*
X105128571Y-93835771D01*
X105128571Y-93835771D02*
X105271428Y-93835771D01*
X105271428Y-93835771D02*
X105366666Y-93883390D01*
X105366666Y-93883390D02*
X105414285Y-93931009D01*
X105414285Y-93931009D02*
X105461904Y-94026247D01*
X105461904Y-94026247D02*
X105461904Y-94264342D01*
X105461904Y-94264342D02*
X105414285Y-94359580D01*
X105414285Y-94359580D02*
X105366666Y-94407200D01*
X105366666Y-94407200D02*
X105271428Y-94454819D01*
X105271428Y-94454819D02*
X104985714Y-94454819D01*
X104985714Y-94454819D02*
X104890476Y-94407200D01*
X104890476Y-94407200D02*
X104842857Y-94359580D01*
X100664460Y-89054819D02*
X100331127Y-88578628D01*
X100093032Y-89054819D02*
X100093032Y-88054819D01*
X100093032Y-88054819D02*
X100473984Y-88054819D01*
X100473984Y-88054819D02*
X100569222Y-88102438D01*
X100569222Y-88102438D02*
X100616841Y-88150057D01*
X100616841Y-88150057D02*
X100664460Y-88245295D01*
X100664460Y-88245295D02*
X100664460Y-88388152D01*
X100664460Y-88388152D02*
X100616841Y-88483390D01*
X100616841Y-88483390D02*
X100569222Y-88531009D01*
X100569222Y-88531009D02*
X100473984Y-88578628D01*
X100473984Y-88578628D02*
X100093032Y-88578628D01*
X101521603Y-88388152D02*
X101521603Y-89054819D01*
X101283508Y-88007200D02*
X101045413Y-88721485D01*
X101045413Y-88721485D02*
X101664460Y-88721485D01*
X100664460Y-87254819D02*
X100331127Y-86778628D01*
X100093032Y-87254819D02*
X100093032Y-86254819D01*
X100093032Y-86254819D02*
X100473984Y-86254819D01*
X100473984Y-86254819D02*
X100569222Y-86302438D01*
X100569222Y-86302438D02*
X100616841Y-86350057D01*
X100616841Y-86350057D02*
X100664460Y-86445295D01*
X100664460Y-86445295D02*
X100664460Y-86588152D01*
X100664460Y-86588152D02*
X100616841Y-86683390D01*
X100616841Y-86683390D02*
X100569222Y-86731009D01*
X100569222Y-86731009D02*
X100473984Y-86778628D01*
X100473984Y-86778628D02*
X100093032Y-86778628D01*
X101569222Y-86254819D02*
X101093032Y-86254819D01*
X101093032Y-86254819D02*
X101045413Y-86731009D01*
X101045413Y-86731009D02*
X101093032Y-86683390D01*
X101093032Y-86683390D02*
X101188270Y-86635771D01*
X101188270Y-86635771D02*
X101426365Y-86635771D01*
X101426365Y-86635771D02*
X101521603Y-86683390D01*
X101521603Y-86683390D02*
X101569222Y-86731009D01*
X101569222Y-86731009D02*
X101616841Y-86826247D01*
X101616841Y-86826247D02*
X101616841Y-87064342D01*
X101616841Y-87064342D02*
X101569222Y-87159580D01*
X101569222Y-87159580D02*
X101521603Y-87207200D01*
X101521603Y-87207200D02*
X101426365Y-87254819D01*
X101426365Y-87254819D02*
X101188270Y-87254819D01*
X101188270Y-87254819D02*
X101093032Y-87207200D01*
X101093032Y-87207200D02*
X101045413Y-87159580D01*
X167793095Y-87229819D02*
X167793095Y-88039342D01*
X167793095Y-88039342D02*
X167840714Y-88134580D01*
X167840714Y-88134580D02*
X167888333Y-88182200D01*
X167888333Y-88182200D02*
X167983571Y-88229819D01*
X167983571Y-88229819D02*
X168174047Y-88229819D01*
X168174047Y-88229819D02*
X168269285Y-88182200D01*
X168269285Y-88182200D02*
X168316904Y-88134580D01*
X168316904Y-88134580D02*
X168364523Y-88039342D01*
X168364523Y-88039342D02*
X168364523Y-87229819D01*
X169316904Y-87229819D02*
X168840714Y-87229819D01*
X168840714Y-87229819D02*
X168793095Y-87706009D01*
X168793095Y-87706009D02*
X168840714Y-87658390D01*
X168840714Y-87658390D02*
X168935952Y-87610771D01*
X168935952Y-87610771D02*
X169174047Y-87610771D01*
X169174047Y-87610771D02*
X169269285Y-87658390D01*
X169269285Y-87658390D02*
X169316904Y-87706009D01*
X169316904Y-87706009D02*
X169364523Y-87801247D01*
X169364523Y-87801247D02*
X169364523Y-88039342D01*
X169364523Y-88039342D02*
X169316904Y-88134580D01*
X169316904Y-88134580D02*
X169269285Y-88182200D01*
X169269285Y-88182200D02*
X169174047Y-88229819D01*
X169174047Y-88229819D02*
X168935952Y-88229819D01*
X168935952Y-88229819D02*
X168840714Y-88182200D01*
X168840714Y-88182200D02*
X168793095Y-88134580D01*
X139807142Y-101944819D02*
X139473809Y-101468628D01*
X139235714Y-101944819D02*
X139235714Y-100944819D01*
X139235714Y-100944819D02*
X139616666Y-100944819D01*
X139616666Y-100944819D02*
X139711904Y-100992438D01*
X139711904Y-100992438D02*
X139759523Y-101040057D01*
X139759523Y-101040057D02*
X139807142Y-101135295D01*
X139807142Y-101135295D02*
X139807142Y-101278152D01*
X139807142Y-101278152D02*
X139759523Y-101373390D01*
X139759523Y-101373390D02*
X139711904Y-101421009D01*
X139711904Y-101421009D02*
X139616666Y-101468628D01*
X139616666Y-101468628D02*
X139235714Y-101468628D01*
X140759523Y-101944819D02*
X140188095Y-101944819D01*
X140473809Y-101944819D02*
X140473809Y-100944819D01*
X140473809Y-100944819D02*
X140378571Y-101087676D01*
X140378571Y-101087676D02*
X140283333Y-101182914D01*
X140283333Y-101182914D02*
X140188095Y-101230533D01*
X141140476Y-101040057D02*
X141188095Y-100992438D01*
X141188095Y-100992438D02*
X141283333Y-100944819D01*
X141283333Y-100944819D02*
X141521428Y-100944819D01*
X141521428Y-100944819D02*
X141616666Y-100992438D01*
X141616666Y-100992438D02*
X141664285Y-101040057D01*
X141664285Y-101040057D02*
X141711904Y-101135295D01*
X141711904Y-101135295D02*
X141711904Y-101230533D01*
X141711904Y-101230533D02*
X141664285Y-101373390D01*
X141664285Y-101373390D02*
X141092857Y-101944819D01*
X141092857Y-101944819D02*
X141711904Y-101944819D01*
X161954819Y-56838094D02*
X160954819Y-56838094D01*
X160954819Y-56838094D02*
X160954819Y-56599999D01*
X160954819Y-56599999D02*
X161002438Y-56457142D01*
X161002438Y-56457142D02*
X161097676Y-56361904D01*
X161097676Y-56361904D02*
X161192914Y-56314285D01*
X161192914Y-56314285D02*
X161383390Y-56266666D01*
X161383390Y-56266666D02*
X161526247Y-56266666D01*
X161526247Y-56266666D02*
X161716723Y-56314285D01*
X161716723Y-56314285D02*
X161811961Y-56361904D01*
X161811961Y-56361904D02*
X161907200Y-56457142D01*
X161907200Y-56457142D02*
X161954819Y-56599999D01*
X161954819Y-56599999D02*
X161954819Y-56838094D01*
X161050057Y-55885713D02*
X161002438Y-55838094D01*
X161002438Y-55838094D02*
X160954819Y-55742856D01*
X160954819Y-55742856D02*
X160954819Y-55504761D01*
X160954819Y-55504761D02*
X161002438Y-55409523D01*
X161002438Y-55409523D02*
X161050057Y-55361904D01*
X161050057Y-55361904D02*
X161145295Y-55314285D01*
X161145295Y-55314285D02*
X161240533Y-55314285D01*
X161240533Y-55314285D02*
X161383390Y-55361904D01*
X161383390Y-55361904D02*
X161954819Y-55933332D01*
X161954819Y-55933332D02*
X161954819Y-55314285D01*
X156685714Y-59654819D02*
X156685714Y-60464342D01*
X156685714Y-60464342D02*
X156733333Y-60559580D01*
X156733333Y-60559580D02*
X156780952Y-60607200D01*
X156780952Y-60607200D02*
X156876190Y-60654819D01*
X156876190Y-60654819D02*
X157066666Y-60654819D01*
X157066666Y-60654819D02*
X157161904Y-60607200D01*
X157161904Y-60607200D02*
X157209523Y-60559580D01*
X157209523Y-60559580D02*
X157257142Y-60464342D01*
X157257142Y-60464342D02*
X157257142Y-59654819D01*
X157685714Y-60607200D02*
X157828571Y-60654819D01*
X157828571Y-60654819D02*
X158066666Y-60654819D01*
X158066666Y-60654819D02*
X158161904Y-60607200D01*
X158161904Y-60607200D02*
X158209523Y-60559580D01*
X158209523Y-60559580D02*
X158257142Y-60464342D01*
X158257142Y-60464342D02*
X158257142Y-60369104D01*
X158257142Y-60369104D02*
X158209523Y-60273866D01*
X158209523Y-60273866D02*
X158161904Y-60226247D01*
X158161904Y-60226247D02*
X158066666Y-60178628D01*
X158066666Y-60178628D02*
X157876190Y-60131009D01*
X157876190Y-60131009D02*
X157780952Y-60083390D01*
X157780952Y-60083390D02*
X157733333Y-60035771D01*
X157733333Y-60035771D02*
X157685714Y-59940533D01*
X157685714Y-59940533D02*
X157685714Y-59845295D01*
X157685714Y-59845295D02*
X157733333Y-59750057D01*
X157733333Y-59750057D02*
X157780952Y-59702438D01*
X157780952Y-59702438D02*
X157876190Y-59654819D01*
X157876190Y-59654819D02*
X158114285Y-59654819D01*
X158114285Y-59654819D02*
X158257142Y-59702438D01*
X158685714Y-60131009D02*
X159019047Y-60131009D01*
X159161904Y-60654819D02*
X158685714Y-60654819D01*
X158685714Y-60654819D02*
X158685714Y-59654819D01*
X158685714Y-59654819D02*
X159161904Y-59654819D01*
X160161904Y-60654819D02*
X159828571Y-60178628D01*
X159590476Y-60654819D02*
X159590476Y-59654819D01*
X159590476Y-59654819D02*
X159971428Y-59654819D01*
X159971428Y-59654819D02*
X160066666Y-59702438D01*
X160066666Y-59702438D02*
X160114285Y-59750057D01*
X160114285Y-59750057D02*
X160161904Y-59845295D01*
X160161904Y-59845295D02*
X160161904Y-59988152D01*
X160161904Y-59988152D02*
X160114285Y-60083390D01*
X160114285Y-60083390D02*
X160066666Y-60131009D01*
X160066666Y-60131009D02*
X159971428Y-60178628D01*
X159971428Y-60178628D02*
X159590476Y-60178628D01*
X184866666Y-67454819D02*
X184866666Y-68169104D01*
X184866666Y-68169104D02*
X184819047Y-68311961D01*
X184819047Y-68311961D02*
X184723809Y-68407200D01*
X184723809Y-68407200D02*
X184580952Y-68454819D01*
X184580952Y-68454819D02*
X184485714Y-68454819D01*
X185247619Y-67454819D02*
X185866666Y-67454819D01*
X185866666Y-67454819D02*
X185533333Y-67835771D01*
X185533333Y-67835771D02*
X185676190Y-67835771D01*
X185676190Y-67835771D02*
X185771428Y-67883390D01*
X185771428Y-67883390D02*
X185819047Y-67931009D01*
X185819047Y-67931009D02*
X185866666Y-68026247D01*
X185866666Y-68026247D02*
X185866666Y-68264342D01*
X185866666Y-68264342D02*
X185819047Y-68359580D01*
X185819047Y-68359580D02*
X185771428Y-68407200D01*
X185771428Y-68407200D02*
X185676190Y-68454819D01*
X185676190Y-68454819D02*
X185390476Y-68454819D01*
X185390476Y-68454819D02*
X185295238Y-68407200D01*
X185295238Y-68407200D02*
X185247619Y-68359580D01*
X96116666Y-84904819D02*
X96116666Y-85619104D01*
X96116666Y-85619104D02*
X96069047Y-85761961D01*
X96069047Y-85761961D02*
X95973809Y-85857200D01*
X95973809Y-85857200D02*
X95830952Y-85904819D01*
X95830952Y-85904819D02*
X95735714Y-85904819D01*
X97021428Y-85238152D02*
X97021428Y-85904819D01*
X96783333Y-84857200D02*
X96545238Y-85571485D01*
X96545238Y-85571485D02*
X97164285Y-85571485D01*
X128066666Y-68454819D02*
X128066666Y-69169104D01*
X128066666Y-69169104D02*
X128019047Y-69311961D01*
X128019047Y-69311961D02*
X127923809Y-69407200D01*
X127923809Y-69407200D02*
X127780952Y-69454819D01*
X127780952Y-69454819D02*
X127685714Y-69454819D01*
X128495238Y-68550057D02*
X128542857Y-68502438D01*
X128542857Y-68502438D02*
X128638095Y-68454819D01*
X128638095Y-68454819D02*
X128876190Y-68454819D01*
X128876190Y-68454819D02*
X128971428Y-68502438D01*
X128971428Y-68502438D02*
X129019047Y-68550057D01*
X129019047Y-68550057D02*
X129066666Y-68645295D01*
X129066666Y-68645295D02*
X129066666Y-68740533D01*
X129066666Y-68740533D02*
X129019047Y-68883390D01*
X129019047Y-68883390D02*
X128447619Y-69454819D01*
X128447619Y-69454819D02*
X129066666Y-69454819D01*
X134004761Y-69254819D02*
X134004761Y-68254819D01*
X134004761Y-68254819D02*
X134385713Y-68254819D01*
X134385713Y-68254819D02*
X134480951Y-68302438D01*
X134480951Y-68302438D02*
X134528570Y-68350057D01*
X134528570Y-68350057D02*
X134576189Y-68445295D01*
X134576189Y-68445295D02*
X134576189Y-68588152D01*
X134576189Y-68588152D02*
X134528570Y-68683390D01*
X134528570Y-68683390D02*
X134480951Y-68731009D01*
X134480951Y-68731009D02*
X134385713Y-68778628D01*
X134385713Y-68778628D02*
X134004761Y-68778628D01*
X135385713Y-69207200D02*
X135290475Y-69254819D01*
X135290475Y-69254819D02*
X135099999Y-69254819D01*
X135099999Y-69254819D02*
X135004761Y-69207200D01*
X135004761Y-69207200D02*
X134957142Y-69111961D01*
X134957142Y-69111961D02*
X134957142Y-68731009D01*
X134957142Y-68731009D02*
X135004761Y-68635771D01*
X135004761Y-68635771D02*
X135099999Y-68588152D01*
X135099999Y-68588152D02*
X135290475Y-68588152D01*
X135290475Y-68588152D02*
X135385713Y-68635771D01*
X135385713Y-68635771D02*
X135433332Y-68731009D01*
X135433332Y-68731009D02*
X135433332Y-68826247D01*
X135433332Y-68826247D02*
X134957142Y-68921485D01*
X135861904Y-69254819D02*
X135861904Y-68588152D01*
X135861904Y-68778628D02*
X135909523Y-68683390D01*
X135909523Y-68683390D02*
X135957142Y-68635771D01*
X135957142Y-68635771D02*
X136052380Y-68588152D01*
X136052380Y-68588152D02*
X136147618Y-68588152D01*
X136480952Y-69254819D02*
X136480952Y-68588152D01*
X136480952Y-68254819D02*
X136433333Y-68302438D01*
X136433333Y-68302438D02*
X136480952Y-68350057D01*
X136480952Y-68350057D02*
X136528571Y-68302438D01*
X136528571Y-68302438D02*
X136480952Y-68254819D01*
X136480952Y-68254819D02*
X136480952Y-68350057D01*
X136957142Y-68588152D02*
X136957142Y-69588152D01*
X136957142Y-68635771D02*
X137052380Y-68588152D01*
X137052380Y-68588152D02*
X137242856Y-68588152D01*
X137242856Y-68588152D02*
X137338094Y-68635771D01*
X137338094Y-68635771D02*
X137385713Y-68683390D01*
X137385713Y-68683390D02*
X137433332Y-68778628D01*
X137433332Y-68778628D02*
X137433332Y-69064342D01*
X137433332Y-69064342D02*
X137385713Y-69159580D01*
X137385713Y-69159580D02*
X137338094Y-69207200D01*
X137338094Y-69207200D02*
X137242856Y-69254819D01*
X137242856Y-69254819D02*
X137052380Y-69254819D01*
X137052380Y-69254819D02*
X136957142Y-69207200D01*
X137861904Y-69254819D02*
X137861904Y-68254819D01*
X138290475Y-69254819D02*
X138290475Y-68731009D01*
X138290475Y-68731009D02*
X138242856Y-68635771D01*
X138242856Y-68635771D02*
X138147618Y-68588152D01*
X138147618Y-68588152D02*
X138004761Y-68588152D01*
X138004761Y-68588152D02*
X137909523Y-68635771D01*
X137909523Y-68635771D02*
X137861904Y-68683390D01*
X139147618Y-69207200D02*
X139052380Y-69254819D01*
X139052380Y-69254819D02*
X138861904Y-69254819D01*
X138861904Y-69254819D02*
X138766666Y-69207200D01*
X138766666Y-69207200D02*
X138719047Y-69111961D01*
X138719047Y-69111961D02*
X138719047Y-68731009D01*
X138719047Y-68731009D02*
X138766666Y-68635771D01*
X138766666Y-68635771D02*
X138861904Y-68588152D01*
X138861904Y-68588152D02*
X139052380Y-68588152D01*
X139052380Y-68588152D02*
X139147618Y-68635771D01*
X139147618Y-68635771D02*
X139195237Y-68731009D01*
X139195237Y-68731009D02*
X139195237Y-68826247D01*
X139195237Y-68826247D02*
X138719047Y-68921485D01*
X139623809Y-69254819D02*
X139623809Y-68588152D01*
X139623809Y-68778628D02*
X139671428Y-68683390D01*
X139671428Y-68683390D02*
X139719047Y-68635771D01*
X139719047Y-68635771D02*
X139814285Y-68588152D01*
X139814285Y-68588152D02*
X139909523Y-68588152D01*
X140671428Y-69254819D02*
X140671428Y-68731009D01*
X140671428Y-68731009D02*
X140623809Y-68635771D01*
X140623809Y-68635771D02*
X140528571Y-68588152D01*
X140528571Y-68588152D02*
X140338095Y-68588152D01*
X140338095Y-68588152D02*
X140242857Y-68635771D01*
X140671428Y-69207200D02*
X140576190Y-69254819D01*
X140576190Y-69254819D02*
X140338095Y-69254819D01*
X140338095Y-69254819D02*
X140242857Y-69207200D01*
X140242857Y-69207200D02*
X140195238Y-69111961D01*
X140195238Y-69111961D02*
X140195238Y-69016723D01*
X140195238Y-69016723D02*
X140242857Y-68921485D01*
X140242857Y-68921485D02*
X140338095Y-68873866D01*
X140338095Y-68873866D02*
X140576190Y-68873866D01*
X140576190Y-68873866D02*
X140671428Y-68826247D01*
X141290476Y-69254819D02*
X141195238Y-69207200D01*
X141195238Y-69207200D02*
X141147619Y-69111961D01*
X141147619Y-69111961D02*
X141147619Y-68254819D01*
X203157142Y-89854819D02*
X202823809Y-89378628D01*
X202585714Y-89854819D02*
X202585714Y-88854819D01*
X202585714Y-88854819D02*
X202966666Y-88854819D01*
X202966666Y-88854819D02*
X203061904Y-88902438D01*
X203061904Y-88902438D02*
X203109523Y-88950057D01*
X203109523Y-88950057D02*
X203157142Y-89045295D01*
X203157142Y-89045295D02*
X203157142Y-89188152D01*
X203157142Y-89188152D02*
X203109523Y-89283390D01*
X203109523Y-89283390D02*
X203061904Y-89331009D01*
X203061904Y-89331009D02*
X202966666Y-89378628D01*
X202966666Y-89378628D02*
X202585714Y-89378628D01*
X204109523Y-89854819D02*
X203538095Y-89854819D01*
X203823809Y-89854819D02*
X203823809Y-88854819D01*
X203823809Y-88854819D02*
X203728571Y-88997676D01*
X203728571Y-88997676D02*
X203633333Y-89092914D01*
X203633333Y-89092914D02*
X203538095Y-89140533D01*
X204966666Y-89188152D02*
X204966666Y-89854819D01*
X204728571Y-88807200D02*
X204490476Y-89521485D01*
X204490476Y-89521485D02*
X205109523Y-89521485D01*
X152061905Y-62854819D02*
X152061905Y-61854819D01*
X152061905Y-61854819D02*
X152300000Y-61854819D01*
X152300000Y-61854819D02*
X152442857Y-61902438D01*
X152442857Y-61902438D02*
X152538095Y-61997676D01*
X152538095Y-61997676D02*
X152585714Y-62092914D01*
X152585714Y-62092914D02*
X152633333Y-62283390D01*
X152633333Y-62283390D02*
X152633333Y-62426247D01*
X152633333Y-62426247D02*
X152585714Y-62616723D01*
X152585714Y-62616723D02*
X152538095Y-62711961D01*
X152538095Y-62711961D02*
X152442857Y-62807200D01*
X152442857Y-62807200D02*
X152300000Y-62854819D01*
X152300000Y-62854819D02*
X152061905Y-62854819D01*
X153585714Y-62854819D02*
X153014286Y-62854819D01*
X153300000Y-62854819D02*
X153300000Y-61854819D01*
X153300000Y-61854819D02*
X153204762Y-61997676D01*
X153204762Y-61997676D02*
X153109524Y-62092914D01*
X153109524Y-62092914D02*
X153014286Y-62140533D01*
X162538095Y-63154819D02*
X162538095Y-63964342D01*
X162538095Y-63964342D02*
X162585714Y-64059580D01*
X162585714Y-64059580D02*
X162633333Y-64107200D01*
X162633333Y-64107200D02*
X162728571Y-64154819D01*
X162728571Y-64154819D02*
X162919047Y-64154819D01*
X162919047Y-64154819D02*
X163014285Y-64107200D01*
X163014285Y-64107200D02*
X163061904Y-64059580D01*
X163061904Y-64059580D02*
X163109523Y-63964342D01*
X163109523Y-63964342D02*
X163109523Y-63154819D01*
X163538095Y-63250057D02*
X163585714Y-63202438D01*
X163585714Y-63202438D02*
X163680952Y-63154819D01*
X163680952Y-63154819D02*
X163919047Y-63154819D01*
X163919047Y-63154819D02*
X164014285Y-63202438D01*
X164014285Y-63202438D02*
X164061904Y-63250057D01*
X164061904Y-63250057D02*
X164109523Y-63345295D01*
X164109523Y-63345295D02*
X164109523Y-63440533D01*
X164109523Y-63440533D02*
X164061904Y-63583390D01*
X164061904Y-63583390D02*
X163490476Y-64154819D01*
X163490476Y-64154819D02*
X164109523Y-64154819D01*
X157712142Y-88409580D02*
X157664523Y-88457200D01*
X157664523Y-88457200D02*
X157521666Y-88504819D01*
X157521666Y-88504819D02*
X157426428Y-88504819D01*
X157426428Y-88504819D02*
X157283571Y-88457200D01*
X157283571Y-88457200D02*
X157188333Y-88361961D01*
X157188333Y-88361961D02*
X157140714Y-88266723D01*
X157140714Y-88266723D02*
X157093095Y-88076247D01*
X157093095Y-88076247D02*
X157093095Y-87933390D01*
X157093095Y-87933390D02*
X157140714Y-87742914D01*
X157140714Y-87742914D02*
X157188333Y-87647676D01*
X157188333Y-87647676D02*
X157283571Y-87552438D01*
X157283571Y-87552438D02*
X157426428Y-87504819D01*
X157426428Y-87504819D02*
X157521666Y-87504819D01*
X157521666Y-87504819D02*
X157664523Y-87552438D01*
X157664523Y-87552438D02*
X157712142Y-87600057D01*
X158664523Y-88504819D02*
X158093095Y-88504819D01*
X158378809Y-88504819D02*
X158378809Y-87504819D01*
X158378809Y-87504819D02*
X158283571Y-87647676D01*
X158283571Y-87647676D02*
X158188333Y-87742914D01*
X158188333Y-87742914D02*
X158093095Y-87790533D01*
X159521666Y-87504819D02*
X159331190Y-87504819D01*
X159331190Y-87504819D02*
X159235952Y-87552438D01*
X159235952Y-87552438D02*
X159188333Y-87600057D01*
X159188333Y-87600057D02*
X159093095Y-87742914D01*
X159093095Y-87742914D02*
X159045476Y-87933390D01*
X159045476Y-87933390D02*
X159045476Y-88314342D01*
X159045476Y-88314342D02*
X159093095Y-88409580D01*
X159093095Y-88409580D02*
X159140714Y-88457200D01*
X159140714Y-88457200D02*
X159235952Y-88504819D01*
X159235952Y-88504819D02*
X159426428Y-88504819D01*
X159426428Y-88504819D02*
X159521666Y-88457200D01*
X159521666Y-88457200D02*
X159569285Y-88409580D01*
X159569285Y-88409580D02*
X159616904Y-88314342D01*
X159616904Y-88314342D02*
X159616904Y-88076247D01*
X159616904Y-88076247D02*
X159569285Y-87981009D01*
X159569285Y-87981009D02*
X159521666Y-87933390D01*
X159521666Y-87933390D02*
X159426428Y-87885771D01*
X159426428Y-87885771D02*
X159235952Y-87885771D01*
X159235952Y-87885771D02*
X159140714Y-87933390D01*
X159140714Y-87933390D02*
X159093095Y-87981009D01*
X159093095Y-87981009D02*
X159045476Y-88076247D01*
X150397618Y-92144819D02*
X150064285Y-91668628D01*
X149826190Y-92144819D02*
X149826190Y-91144819D01*
X149826190Y-91144819D02*
X150207142Y-91144819D01*
X150207142Y-91144819D02*
X150302380Y-91192438D01*
X150302380Y-91192438D02*
X150349999Y-91240057D01*
X150349999Y-91240057D02*
X150397618Y-91335295D01*
X150397618Y-91335295D02*
X150397618Y-91478152D01*
X150397618Y-91478152D02*
X150349999Y-91573390D01*
X150349999Y-91573390D02*
X150302380Y-91621009D01*
X150302380Y-91621009D02*
X150207142Y-91668628D01*
X150207142Y-91668628D02*
X149826190Y-91668628D01*
X150826190Y-91621009D02*
X151159523Y-91621009D01*
X151302380Y-92144819D02*
X150826190Y-92144819D01*
X150826190Y-92144819D02*
X150826190Y-91144819D01*
X150826190Y-91144819D02*
X151302380Y-91144819D01*
X151683333Y-92097200D02*
X151826190Y-92144819D01*
X151826190Y-92144819D02*
X152064285Y-92144819D01*
X152064285Y-92144819D02*
X152159523Y-92097200D01*
X152159523Y-92097200D02*
X152207142Y-92049580D01*
X152207142Y-92049580D02*
X152254761Y-91954342D01*
X152254761Y-91954342D02*
X152254761Y-91859104D01*
X152254761Y-91859104D02*
X152207142Y-91763866D01*
X152207142Y-91763866D02*
X152159523Y-91716247D01*
X152159523Y-91716247D02*
X152064285Y-91668628D01*
X152064285Y-91668628D02*
X151873809Y-91621009D01*
X151873809Y-91621009D02*
X151778571Y-91573390D01*
X151778571Y-91573390D02*
X151730952Y-91525771D01*
X151730952Y-91525771D02*
X151683333Y-91430533D01*
X151683333Y-91430533D02*
X151683333Y-91335295D01*
X151683333Y-91335295D02*
X151730952Y-91240057D01*
X151730952Y-91240057D02*
X151778571Y-91192438D01*
X151778571Y-91192438D02*
X151873809Y-91144819D01*
X151873809Y-91144819D02*
X152111904Y-91144819D01*
X152111904Y-91144819D02*
X152254761Y-91192438D01*
X152683333Y-91621009D02*
X153016666Y-91621009D01*
X153159523Y-92144819D02*
X152683333Y-92144819D01*
X152683333Y-92144819D02*
X152683333Y-91144819D01*
X152683333Y-91144819D02*
X153159523Y-91144819D01*
X153445238Y-91144819D02*
X154016666Y-91144819D01*
X153730952Y-92144819D02*
X153730952Y-91144819D01*
X165512142Y-91809580D02*
X165464523Y-91857200D01*
X165464523Y-91857200D02*
X165321666Y-91904819D01*
X165321666Y-91904819D02*
X165226428Y-91904819D01*
X165226428Y-91904819D02*
X165083571Y-91857200D01*
X165083571Y-91857200D02*
X164988333Y-91761961D01*
X164988333Y-91761961D02*
X164940714Y-91666723D01*
X164940714Y-91666723D02*
X164893095Y-91476247D01*
X164893095Y-91476247D02*
X164893095Y-91333390D01*
X164893095Y-91333390D02*
X164940714Y-91142914D01*
X164940714Y-91142914D02*
X164988333Y-91047676D01*
X164988333Y-91047676D02*
X165083571Y-90952438D01*
X165083571Y-90952438D02*
X165226428Y-90904819D01*
X165226428Y-90904819D02*
X165321666Y-90904819D01*
X165321666Y-90904819D02*
X165464523Y-90952438D01*
X165464523Y-90952438D02*
X165512142Y-91000057D01*
X166464523Y-91904819D02*
X165893095Y-91904819D01*
X166178809Y-91904819D02*
X166178809Y-90904819D01*
X166178809Y-90904819D02*
X166083571Y-91047676D01*
X166083571Y-91047676D02*
X165988333Y-91142914D01*
X165988333Y-91142914D02*
X165893095Y-91190533D01*
X166797857Y-90904819D02*
X167464523Y-90904819D01*
X167464523Y-90904819D02*
X167035952Y-91904819D01*
X98689460Y-83544819D02*
X98356127Y-83068628D01*
X98118032Y-83544819D02*
X98118032Y-82544819D01*
X98118032Y-82544819D02*
X98498984Y-82544819D01*
X98498984Y-82544819D02*
X98594222Y-82592438D01*
X98594222Y-82592438D02*
X98641841Y-82640057D01*
X98641841Y-82640057D02*
X98689460Y-82735295D01*
X98689460Y-82735295D02*
X98689460Y-82878152D01*
X98689460Y-82878152D02*
X98641841Y-82973390D01*
X98641841Y-82973390D02*
X98594222Y-83021009D01*
X98594222Y-83021009D02*
X98498984Y-83068628D01*
X98498984Y-83068628D02*
X98118032Y-83068628D01*
X99546603Y-82544819D02*
X99356127Y-82544819D01*
X99356127Y-82544819D02*
X99260889Y-82592438D01*
X99260889Y-82592438D02*
X99213270Y-82640057D01*
X99213270Y-82640057D02*
X99118032Y-82782914D01*
X99118032Y-82782914D02*
X99070413Y-82973390D01*
X99070413Y-82973390D02*
X99070413Y-83354342D01*
X99070413Y-83354342D02*
X99118032Y-83449580D01*
X99118032Y-83449580D02*
X99165651Y-83497200D01*
X99165651Y-83497200D02*
X99260889Y-83544819D01*
X99260889Y-83544819D02*
X99451365Y-83544819D01*
X99451365Y-83544819D02*
X99546603Y-83497200D01*
X99546603Y-83497200D02*
X99594222Y-83449580D01*
X99594222Y-83449580D02*
X99641841Y-83354342D01*
X99641841Y-83354342D02*
X99641841Y-83116247D01*
X99641841Y-83116247D02*
X99594222Y-83021009D01*
X99594222Y-83021009D02*
X99546603Y-82973390D01*
X99546603Y-82973390D02*
X99451365Y-82925771D01*
X99451365Y-82925771D02*
X99260889Y-82925771D01*
X99260889Y-82925771D02*
X99165651Y-82973390D01*
X99165651Y-82973390D02*
X99118032Y-83021009D01*
X99118032Y-83021009D02*
X99070413Y-83116247D01*
X141466666Y-61454819D02*
X141466666Y-62169104D01*
X141466666Y-62169104D02*
X141419047Y-62311961D01*
X141419047Y-62311961D02*
X141323809Y-62407200D01*
X141323809Y-62407200D02*
X141180952Y-62454819D01*
X141180952Y-62454819D02*
X141085714Y-62454819D01*
X142466666Y-62454819D02*
X141895238Y-62454819D01*
X142180952Y-62454819D02*
X142180952Y-61454819D01*
X142180952Y-61454819D02*
X142085714Y-61597676D01*
X142085714Y-61597676D02*
X141990476Y-61692914D01*
X141990476Y-61692914D02*
X141895238Y-61740533D01*
X106419222Y-79254819D02*
X106419222Y-80064342D01*
X106419222Y-80064342D02*
X106466841Y-80159580D01*
X106466841Y-80159580D02*
X106514460Y-80207200D01*
X106514460Y-80207200D02*
X106609698Y-80254819D01*
X106609698Y-80254819D02*
X106800174Y-80254819D01*
X106800174Y-80254819D02*
X106895412Y-80207200D01*
X106895412Y-80207200D02*
X106943031Y-80159580D01*
X106943031Y-80159580D02*
X106990650Y-80064342D01*
X106990650Y-80064342D02*
X106990650Y-79254819D01*
X107990650Y-80254819D02*
X107419222Y-80254819D01*
X107704936Y-80254819D02*
X107704936Y-79254819D01*
X107704936Y-79254819D02*
X107609698Y-79397676D01*
X107609698Y-79397676D02*
X107514460Y-79492914D01*
X107514460Y-79492914D02*
X107419222Y-79540533D01*
X167554819Y-56166666D02*
X167078628Y-56499999D01*
X167554819Y-56738094D02*
X166554819Y-56738094D01*
X166554819Y-56738094D02*
X166554819Y-56357142D01*
X166554819Y-56357142D02*
X166602438Y-56261904D01*
X166602438Y-56261904D02*
X166650057Y-56214285D01*
X166650057Y-56214285D02*
X166745295Y-56166666D01*
X166745295Y-56166666D02*
X166888152Y-56166666D01*
X166888152Y-56166666D02*
X166983390Y-56214285D01*
X166983390Y-56214285D02*
X167031009Y-56261904D01*
X167031009Y-56261904D02*
X167078628Y-56357142D01*
X167078628Y-56357142D02*
X167078628Y-56738094D01*
X166650057Y-55785713D02*
X166602438Y-55738094D01*
X166602438Y-55738094D02*
X166554819Y-55642856D01*
X166554819Y-55642856D02*
X166554819Y-55404761D01*
X166554819Y-55404761D02*
X166602438Y-55309523D01*
X166602438Y-55309523D02*
X166650057Y-55261904D01*
X166650057Y-55261904D02*
X166745295Y-55214285D01*
X166745295Y-55214285D02*
X166840533Y-55214285D01*
X166840533Y-55214285D02*
X166983390Y-55261904D01*
X166983390Y-55261904D02*
X167554819Y-55833332D01*
X167554819Y-55833332D02*
X167554819Y-55214285D01*
X108157142Y-99654819D02*
X107823809Y-99178628D01*
X107585714Y-99654819D02*
X107585714Y-98654819D01*
X107585714Y-98654819D02*
X107966666Y-98654819D01*
X107966666Y-98654819D02*
X108061904Y-98702438D01*
X108061904Y-98702438D02*
X108109523Y-98750057D01*
X108109523Y-98750057D02*
X108157142Y-98845295D01*
X108157142Y-98845295D02*
X108157142Y-98988152D01*
X108157142Y-98988152D02*
X108109523Y-99083390D01*
X108109523Y-99083390D02*
X108061904Y-99131009D01*
X108061904Y-99131009D02*
X107966666Y-99178628D01*
X107966666Y-99178628D02*
X107585714Y-99178628D01*
X109109523Y-99654819D02*
X108538095Y-99654819D01*
X108823809Y-99654819D02*
X108823809Y-98654819D01*
X108823809Y-98654819D02*
X108728571Y-98797676D01*
X108728571Y-98797676D02*
X108633333Y-98892914D01*
X108633333Y-98892914D02*
X108538095Y-98940533D01*
X109728571Y-98654819D02*
X109823809Y-98654819D01*
X109823809Y-98654819D02*
X109919047Y-98702438D01*
X109919047Y-98702438D02*
X109966666Y-98750057D01*
X109966666Y-98750057D02*
X110014285Y-98845295D01*
X110014285Y-98845295D02*
X110061904Y-99035771D01*
X110061904Y-99035771D02*
X110061904Y-99273866D01*
X110061904Y-99273866D02*
X110014285Y-99464342D01*
X110014285Y-99464342D02*
X109966666Y-99559580D01*
X109966666Y-99559580D02*
X109919047Y-99607200D01*
X109919047Y-99607200D02*
X109823809Y-99654819D01*
X109823809Y-99654819D02*
X109728571Y-99654819D01*
X109728571Y-99654819D02*
X109633333Y-99607200D01*
X109633333Y-99607200D02*
X109585714Y-99559580D01*
X109585714Y-99559580D02*
X109538095Y-99464342D01*
X109538095Y-99464342D02*
X109490476Y-99273866D01*
X109490476Y-99273866D02*
X109490476Y-99035771D01*
X109490476Y-99035771D02*
X109538095Y-98845295D01*
X109538095Y-98845295D02*
X109585714Y-98750057D01*
X109585714Y-98750057D02*
X109633333Y-98702438D01*
X109633333Y-98702438D02*
X109728571Y-98654819D01*
X159633333Y-64954819D02*
X159300000Y-64478628D01*
X159061905Y-64954819D02*
X159061905Y-63954819D01*
X159061905Y-63954819D02*
X159442857Y-63954819D01*
X159442857Y-63954819D02*
X159538095Y-64002438D01*
X159538095Y-64002438D02*
X159585714Y-64050057D01*
X159585714Y-64050057D02*
X159633333Y-64145295D01*
X159633333Y-64145295D02*
X159633333Y-64288152D01*
X159633333Y-64288152D02*
X159585714Y-64383390D01*
X159585714Y-64383390D02*
X159538095Y-64431009D01*
X159538095Y-64431009D02*
X159442857Y-64478628D01*
X159442857Y-64478628D02*
X159061905Y-64478628D01*
X159966667Y-63954819D02*
X160633333Y-63954819D01*
X160633333Y-63954819D02*
X160204762Y-64954819D01*
X167957142Y-64059580D02*
X167909523Y-64107200D01*
X167909523Y-64107200D02*
X167766666Y-64154819D01*
X167766666Y-64154819D02*
X167671428Y-64154819D01*
X167671428Y-64154819D02*
X167528571Y-64107200D01*
X167528571Y-64107200D02*
X167433333Y-64011961D01*
X167433333Y-64011961D02*
X167385714Y-63916723D01*
X167385714Y-63916723D02*
X167338095Y-63726247D01*
X167338095Y-63726247D02*
X167338095Y-63583390D01*
X167338095Y-63583390D02*
X167385714Y-63392914D01*
X167385714Y-63392914D02*
X167433333Y-63297676D01*
X167433333Y-63297676D02*
X167528571Y-63202438D01*
X167528571Y-63202438D02*
X167671428Y-63154819D01*
X167671428Y-63154819D02*
X167766666Y-63154819D01*
X167766666Y-63154819D02*
X167909523Y-63202438D01*
X167909523Y-63202438D02*
X167957142Y-63250057D01*
X168909523Y-64154819D02*
X168338095Y-64154819D01*
X168623809Y-64154819D02*
X168623809Y-63154819D01*
X168623809Y-63154819D02*
X168528571Y-63297676D01*
X168528571Y-63297676D02*
X168433333Y-63392914D01*
X168433333Y-63392914D02*
X168338095Y-63440533D01*
X169861904Y-64154819D02*
X169290476Y-64154819D01*
X169576190Y-64154819D02*
X169576190Y-63154819D01*
X169576190Y-63154819D02*
X169480952Y-63297676D01*
X169480952Y-63297676D02*
X169385714Y-63392914D01*
X169385714Y-63392914D02*
X169290476Y-63440533D01*
X155633333Y-81154819D02*
X155300000Y-80678628D01*
X155061905Y-81154819D02*
X155061905Y-80154819D01*
X155061905Y-80154819D02*
X155442857Y-80154819D01*
X155442857Y-80154819D02*
X155538095Y-80202438D01*
X155538095Y-80202438D02*
X155585714Y-80250057D01*
X155585714Y-80250057D02*
X155633333Y-80345295D01*
X155633333Y-80345295D02*
X155633333Y-80488152D01*
X155633333Y-80488152D02*
X155585714Y-80583390D01*
X155585714Y-80583390D02*
X155538095Y-80631009D01*
X155538095Y-80631009D02*
X155442857Y-80678628D01*
X155442857Y-80678628D02*
X155061905Y-80678628D01*
X156204762Y-80583390D02*
X156109524Y-80535771D01*
X156109524Y-80535771D02*
X156061905Y-80488152D01*
X156061905Y-80488152D02*
X156014286Y-80392914D01*
X156014286Y-80392914D02*
X156014286Y-80345295D01*
X156014286Y-80345295D02*
X156061905Y-80250057D01*
X156061905Y-80250057D02*
X156109524Y-80202438D01*
X156109524Y-80202438D02*
X156204762Y-80154819D01*
X156204762Y-80154819D02*
X156395238Y-80154819D01*
X156395238Y-80154819D02*
X156490476Y-80202438D01*
X156490476Y-80202438D02*
X156538095Y-80250057D01*
X156538095Y-80250057D02*
X156585714Y-80345295D01*
X156585714Y-80345295D02*
X156585714Y-80392914D01*
X156585714Y-80392914D02*
X156538095Y-80488152D01*
X156538095Y-80488152D02*
X156490476Y-80535771D01*
X156490476Y-80535771D02*
X156395238Y-80583390D01*
X156395238Y-80583390D02*
X156204762Y-80583390D01*
X156204762Y-80583390D02*
X156109524Y-80631009D01*
X156109524Y-80631009D02*
X156061905Y-80678628D01*
X156061905Y-80678628D02*
X156014286Y-80773866D01*
X156014286Y-80773866D02*
X156014286Y-80964342D01*
X156014286Y-80964342D02*
X156061905Y-81059580D01*
X156061905Y-81059580D02*
X156109524Y-81107200D01*
X156109524Y-81107200D02*
X156204762Y-81154819D01*
X156204762Y-81154819D02*
X156395238Y-81154819D01*
X156395238Y-81154819D02*
X156490476Y-81107200D01*
X156490476Y-81107200D02*
X156538095Y-81059580D01*
X156538095Y-81059580D02*
X156585714Y-80964342D01*
X156585714Y-80964342D02*
X156585714Y-80773866D01*
X156585714Y-80773866D02*
X156538095Y-80678628D01*
X156538095Y-80678628D02*
X156490476Y-80631009D01*
X156490476Y-80631009D02*
X156395238Y-80583390D01*
X107933333Y-93559580D02*
X107885714Y-93607200D01*
X107885714Y-93607200D02*
X107742857Y-93654819D01*
X107742857Y-93654819D02*
X107647619Y-93654819D01*
X107647619Y-93654819D02*
X107504762Y-93607200D01*
X107504762Y-93607200D02*
X107409524Y-93511961D01*
X107409524Y-93511961D02*
X107361905Y-93416723D01*
X107361905Y-93416723D02*
X107314286Y-93226247D01*
X107314286Y-93226247D02*
X107314286Y-93083390D01*
X107314286Y-93083390D02*
X107361905Y-92892914D01*
X107361905Y-92892914D02*
X107409524Y-92797676D01*
X107409524Y-92797676D02*
X107504762Y-92702438D01*
X107504762Y-92702438D02*
X107647619Y-92654819D01*
X107647619Y-92654819D02*
X107742857Y-92654819D01*
X107742857Y-92654819D02*
X107885714Y-92702438D01*
X107885714Y-92702438D02*
X107933333Y-92750057D01*
X108790476Y-92988152D02*
X108790476Y-93654819D01*
X108552381Y-92607200D02*
X108314286Y-93321485D01*
X108314286Y-93321485D02*
X108933333Y-93321485D01*
X175512142Y-91692080D02*
X175464523Y-91739700D01*
X175464523Y-91739700D02*
X175321666Y-91787319D01*
X175321666Y-91787319D02*
X175226428Y-91787319D01*
X175226428Y-91787319D02*
X175083571Y-91739700D01*
X175083571Y-91739700D02*
X174988333Y-91644461D01*
X174988333Y-91644461D02*
X174940714Y-91549223D01*
X174940714Y-91549223D02*
X174893095Y-91358747D01*
X174893095Y-91358747D02*
X174893095Y-91215890D01*
X174893095Y-91215890D02*
X174940714Y-91025414D01*
X174940714Y-91025414D02*
X174988333Y-90930176D01*
X174988333Y-90930176D02*
X175083571Y-90834938D01*
X175083571Y-90834938D02*
X175226428Y-90787319D01*
X175226428Y-90787319D02*
X175321666Y-90787319D01*
X175321666Y-90787319D02*
X175464523Y-90834938D01*
X175464523Y-90834938D02*
X175512142Y-90882557D01*
X176464523Y-91787319D02*
X175893095Y-91787319D01*
X176178809Y-91787319D02*
X176178809Y-90787319D01*
X176178809Y-90787319D02*
X176083571Y-90930176D01*
X176083571Y-90930176D02*
X175988333Y-91025414D01*
X175988333Y-91025414D02*
X175893095Y-91073033D01*
X176940714Y-91787319D02*
X177131190Y-91787319D01*
X177131190Y-91787319D02*
X177226428Y-91739700D01*
X177226428Y-91739700D02*
X177274047Y-91692080D01*
X177274047Y-91692080D02*
X177369285Y-91549223D01*
X177369285Y-91549223D02*
X177416904Y-91358747D01*
X177416904Y-91358747D02*
X177416904Y-90977795D01*
X177416904Y-90977795D02*
X177369285Y-90882557D01*
X177369285Y-90882557D02*
X177321666Y-90834938D01*
X177321666Y-90834938D02*
X177226428Y-90787319D01*
X177226428Y-90787319D02*
X177035952Y-90787319D01*
X177035952Y-90787319D02*
X176940714Y-90834938D01*
X176940714Y-90834938D02*
X176893095Y-90882557D01*
X176893095Y-90882557D02*
X176845476Y-90977795D01*
X176845476Y-90977795D02*
X176845476Y-91215890D01*
X176845476Y-91215890D02*
X176893095Y-91311128D01*
X176893095Y-91311128D02*
X176940714Y-91358747D01*
X176940714Y-91358747D02*
X177035952Y-91406366D01*
X177035952Y-91406366D02*
X177226428Y-91406366D01*
X177226428Y-91406366D02*
X177321666Y-91358747D01*
X177321666Y-91358747D02*
X177369285Y-91311128D01*
X177369285Y-91311128D02*
X177416904Y-91215890D01*
X122842857Y-70731009D02*
X122985714Y-70778628D01*
X122985714Y-70778628D02*
X123033333Y-70826247D01*
X123033333Y-70826247D02*
X123080952Y-70921485D01*
X123080952Y-70921485D02*
X123080952Y-71064342D01*
X123080952Y-71064342D02*
X123033333Y-71159580D01*
X123033333Y-71159580D02*
X122985714Y-71207200D01*
X122985714Y-71207200D02*
X122890476Y-71254819D01*
X122890476Y-71254819D02*
X122509524Y-71254819D01*
X122509524Y-71254819D02*
X122509524Y-70254819D01*
X122509524Y-70254819D02*
X122842857Y-70254819D01*
X122842857Y-70254819D02*
X122938095Y-70302438D01*
X122938095Y-70302438D02*
X122985714Y-70350057D01*
X122985714Y-70350057D02*
X123033333Y-70445295D01*
X123033333Y-70445295D02*
X123033333Y-70540533D01*
X123033333Y-70540533D02*
X122985714Y-70635771D01*
X122985714Y-70635771D02*
X122938095Y-70683390D01*
X122938095Y-70683390D02*
X122842857Y-70731009D01*
X122842857Y-70731009D02*
X122509524Y-70731009D01*
X123700000Y-70254819D02*
X123890476Y-70254819D01*
X123890476Y-70254819D02*
X123985714Y-70302438D01*
X123985714Y-70302438D02*
X124080952Y-70397676D01*
X124080952Y-70397676D02*
X124128571Y-70588152D01*
X124128571Y-70588152D02*
X124128571Y-70921485D01*
X124128571Y-70921485D02*
X124080952Y-71111961D01*
X124080952Y-71111961D02*
X123985714Y-71207200D01*
X123985714Y-71207200D02*
X123890476Y-71254819D01*
X123890476Y-71254819D02*
X123700000Y-71254819D01*
X123700000Y-71254819D02*
X123604762Y-71207200D01*
X123604762Y-71207200D02*
X123509524Y-71111961D01*
X123509524Y-71111961D02*
X123461905Y-70921485D01*
X123461905Y-70921485D02*
X123461905Y-70588152D01*
X123461905Y-70588152D02*
X123509524Y-70397676D01*
X123509524Y-70397676D02*
X123604762Y-70302438D01*
X123604762Y-70302438D02*
X123700000Y-70254819D01*
X124747619Y-70254819D02*
X124938095Y-70254819D01*
X124938095Y-70254819D02*
X125033333Y-70302438D01*
X125033333Y-70302438D02*
X125128571Y-70397676D01*
X125128571Y-70397676D02*
X125176190Y-70588152D01*
X125176190Y-70588152D02*
X125176190Y-70921485D01*
X125176190Y-70921485D02*
X125128571Y-71111961D01*
X125128571Y-71111961D02*
X125033333Y-71207200D01*
X125033333Y-71207200D02*
X124938095Y-71254819D01*
X124938095Y-71254819D02*
X124747619Y-71254819D01*
X124747619Y-71254819D02*
X124652381Y-71207200D01*
X124652381Y-71207200D02*
X124557143Y-71111961D01*
X124557143Y-71111961D02*
X124509524Y-70921485D01*
X124509524Y-70921485D02*
X124509524Y-70588152D01*
X124509524Y-70588152D02*
X124557143Y-70397676D01*
X124557143Y-70397676D02*
X124652381Y-70302438D01*
X124652381Y-70302438D02*
X124747619Y-70254819D01*
X125461905Y-70254819D02*
X126033333Y-70254819D01*
X125747619Y-71254819D02*
X125747619Y-70254819D01*
X168954819Y-56738094D02*
X167954819Y-56738094D01*
X167954819Y-56738094D02*
X167954819Y-56499999D01*
X167954819Y-56499999D02*
X168002438Y-56357142D01*
X168002438Y-56357142D02*
X168097676Y-56261904D01*
X168097676Y-56261904D02*
X168192914Y-56214285D01*
X168192914Y-56214285D02*
X168383390Y-56166666D01*
X168383390Y-56166666D02*
X168526247Y-56166666D01*
X168526247Y-56166666D02*
X168716723Y-56214285D01*
X168716723Y-56214285D02*
X168811961Y-56261904D01*
X168811961Y-56261904D02*
X168907200Y-56357142D01*
X168907200Y-56357142D02*
X168954819Y-56499999D01*
X168954819Y-56499999D02*
X168954819Y-56738094D01*
X167954819Y-55833332D02*
X167954819Y-55214285D01*
X167954819Y-55214285D02*
X168335771Y-55547618D01*
X168335771Y-55547618D02*
X168335771Y-55404761D01*
X168335771Y-55404761D02*
X168383390Y-55309523D01*
X168383390Y-55309523D02*
X168431009Y-55261904D01*
X168431009Y-55261904D02*
X168526247Y-55214285D01*
X168526247Y-55214285D02*
X168764342Y-55214285D01*
X168764342Y-55214285D02*
X168859580Y-55261904D01*
X168859580Y-55261904D02*
X168907200Y-55309523D01*
X168907200Y-55309523D02*
X168954819Y-55404761D01*
X168954819Y-55404761D02*
X168954819Y-55690475D01*
X168954819Y-55690475D02*
X168907200Y-55785713D01*
X168907200Y-55785713D02*
X168859580Y-55833332D01*
X164361904Y-59454819D02*
X164695237Y-60454819D01*
X164695237Y-60454819D02*
X165028570Y-59454819D01*
X165361904Y-60454819D02*
X165361904Y-59454819D01*
X165361904Y-59835771D02*
X165457142Y-59788152D01*
X165457142Y-59788152D02*
X165647618Y-59788152D01*
X165647618Y-59788152D02*
X165742856Y-59835771D01*
X165742856Y-59835771D02*
X165790475Y-59883390D01*
X165790475Y-59883390D02*
X165838094Y-59978628D01*
X165838094Y-59978628D02*
X165838094Y-60264342D01*
X165838094Y-60264342D02*
X165790475Y-60359580D01*
X165790475Y-60359580D02*
X165742856Y-60407200D01*
X165742856Y-60407200D02*
X165647618Y-60454819D01*
X165647618Y-60454819D02*
X165457142Y-60454819D01*
X165457142Y-60454819D02*
X165361904Y-60407200D01*
X166695237Y-59788152D02*
X166695237Y-60454819D01*
X166266666Y-59788152D02*
X166266666Y-60311961D01*
X166266666Y-60311961D02*
X166314285Y-60407200D01*
X166314285Y-60407200D02*
X166409523Y-60454819D01*
X166409523Y-60454819D02*
X166552380Y-60454819D01*
X166552380Y-60454819D02*
X166647618Y-60407200D01*
X166647618Y-60407200D02*
X166695237Y-60359580D01*
X167123809Y-60407200D02*
X167219047Y-60454819D01*
X167219047Y-60454819D02*
X167409523Y-60454819D01*
X167409523Y-60454819D02*
X167504761Y-60407200D01*
X167504761Y-60407200D02*
X167552380Y-60311961D01*
X167552380Y-60311961D02*
X167552380Y-60264342D01*
X167552380Y-60264342D02*
X167504761Y-60169104D01*
X167504761Y-60169104D02*
X167409523Y-60121485D01*
X167409523Y-60121485D02*
X167266666Y-60121485D01*
X167266666Y-60121485D02*
X167171428Y-60073866D01*
X167171428Y-60073866D02*
X167123809Y-59978628D01*
X167123809Y-59978628D02*
X167123809Y-59931009D01*
X167123809Y-59931009D02*
X167171428Y-59835771D01*
X167171428Y-59835771D02*
X167266666Y-59788152D01*
X167266666Y-59788152D02*
X167409523Y-59788152D01*
X167409523Y-59788152D02*
X167504761Y-59835771D01*
X168742857Y-60454819D02*
X168742857Y-59454819D01*
X168742857Y-59454819D02*
X169123809Y-59454819D01*
X169123809Y-59454819D02*
X169219047Y-59502438D01*
X169219047Y-59502438D02*
X169266666Y-59550057D01*
X169266666Y-59550057D02*
X169314285Y-59645295D01*
X169314285Y-59645295D02*
X169314285Y-59788152D01*
X169314285Y-59788152D02*
X169266666Y-59883390D01*
X169266666Y-59883390D02*
X169219047Y-59931009D01*
X169219047Y-59931009D02*
X169123809Y-59978628D01*
X169123809Y-59978628D02*
X168742857Y-59978628D01*
X169885714Y-60454819D02*
X169790476Y-60407200D01*
X169790476Y-60407200D02*
X169742857Y-60359580D01*
X169742857Y-60359580D02*
X169695238Y-60264342D01*
X169695238Y-60264342D02*
X169695238Y-59978628D01*
X169695238Y-59978628D02*
X169742857Y-59883390D01*
X169742857Y-59883390D02*
X169790476Y-59835771D01*
X169790476Y-59835771D02*
X169885714Y-59788152D01*
X169885714Y-59788152D02*
X170028571Y-59788152D01*
X170028571Y-59788152D02*
X170123809Y-59835771D01*
X170123809Y-59835771D02*
X170171428Y-59883390D01*
X170171428Y-59883390D02*
X170219047Y-59978628D01*
X170219047Y-59978628D02*
X170219047Y-60264342D01*
X170219047Y-60264342D02*
X170171428Y-60359580D01*
X170171428Y-60359580D02*
X170123809Y-60407200D01*
X170123809Y-60407200D02*
X170028571Y-60454819D01*
X170028571Y-60454819D02*
X169885714Y-60454819D01*
X170552381Y-59788152D02*
X170742857Y-60454819D01*
X170742857Y-60454819D02*
X170933333Y-59978628D01*
X170933333Y-59978628D02*
X171123809Y-60454819D01*
X171123809Y-60454819D02*
X171314285Y-59788152D01*
X172076190Y-60407200D02*
X171980952Y-60454819D01*
X171980952Y-60454819D02*
X171790476Y-60454819D01*
X171790476Y-60454819D02*
X171695238Y-60407200D01*
X171695238Y-60407200D02*
X171647619Y-60311961D01*
X171647619Y-60311961D02*
X171647619Y-59931009D01*
X171647619Y-59931009D02*
X171695238Y-59835771D01*
X171695238Y-59835771D02*
X171790476Y-59788152D01*
X171790476Y-59788152D02*
X171980952Y-59788152D01*
X171980952Y-59788152D02*
X172076190Y-59835771D01*
X172076190Y-59835771D02*
X172123809Y-59931009D01*
X172123809Y-59931009D02*
X172123809Y-60026247D01*
X172123809Y-60026247D02*
X171647619Y-60121485D01*
X172552381Y-60454819D02*
X172552381Y-59788152D01*
X172552381Y-59978628D02*
X172600000Y-59883390D01*
X172600000Y-59883390D02*
X172647619Y-59835771D01*
X172647619Y-59835771D02*
X172742857Y-59788152D01*
X172742857Y-59788152D02*
X172838095Y-59788152D01*
X107933333Y-94959580D02*
X107885714Y-95007200D01*
X107885714Y-95007200D02*
X107742857Y-95054819D01*
X107742857Y-95054819D02*
X107647619Y-95054819D01*
X107647619Y-95054819D02*
X107504762Y-95007200D01*
X107504762Y-95007200D02*
X107409524Y-94911961D01*
X107409524Y-94911961D02*
X107361905Y-94816723D01*
X107361905Y-94816723D02*
X107314286Y-94626247D01*
X107314286Y-94626247D02*
X107314286Y-94483390D01*
X107314286Y-94483390D02*
X107361905Y-94292914D01*
X107361905Y-94292914D02*
X107409524Y-94197676D01*
X107409524Y-94197676D02*
X107504762Y-94102438D01*
X107504762Y-94102438D02*
X107647619Y-94054819D01*
X107647619Y-94054819D02*
X107742857Y-94054819D01*
X107742857Y-94054819D02*
X107885714Y-94102438D01*
X107885714Y-94102438D02*
X107933333Y-94150057D01*
X108266667Y-94054819D02*
X108885714Y-94054819D01*
X108885714Y-94054819D02*
X108552381Y-94435771D01*
X108552381Y-94435771D02*
X108695238Y-94435771D01*
X108695238Y-94435771D02*
X108790476Y-94483390D01*
X108790476Y-94483390D02*
X108838095Y-94531009D01*
X108838095Y-94531009D02*
X108885714Y-94626247D01*
X108885714Y-94626247D02*
X108885714Y-94864342D01*
X108885714Y-94864342D02*
X108838095Y-94959580D01*
X108838095Y-94959580D02*
X108790476Y-95007200D01*
X108790476Y-95007200D02*
X108695238Y-95054819D01*
X108695238Y-95054819D02*
X108409524Y-95054819D01*
X108409524Y-95054819D02*
X108314286Y-95007200D01*
X108314286Y-95007200D02*
X108266667Y-94959580D01*
X193007142Y-91809580D02*
X192959523Y-91857200D01*
X192959523Y-91857200D02*
X192816666Y-91904819D01*
X192816666Y-91904819D02*
X192721428Y-91904819D01*
X192721428Y-91904819D02*
X192578571Y-91857200D01*
X192578571Y-91857200D02*
X192483333Y-91761961D01*
X192483333Y-91761961D02*
X192435714Y-91666723D01*
X192435714Y-91666723D02*
X192388095Y-91476247D01*
X192388095Y-91476247D02*
X192388095Y-91333390D01*
X192388095Y-91333390D02*
X192435714Y-91142914D01*
X192435714Y-91142914D02*
X192483333Y-91047676D01*
X192483333Y-91047676D02*
X192578571Y-90952438D01*
X192578571Y-90952438D02*
X192721428Y-90904819D01*
X192721428Y-90904819D02*
X192816666Y-90904819D01*
X192816666Y-90904819D02*
X192959523Y-90952438D01*
X192959523Y-90952438D02*
X193007142Y-91000057D01*
X193388095Y-91000057D02*
X193435714Y-90952438D01*
X193435714Y-90952438D02*
X193530952Y-90904819D01*
X193530952Y-90904819D02*
X193769047Y-90904819D01*
X193769047Y-90904819D02*
X193864285Y-90952438D01*
X193864285Y-90952438D02*
X193911904Y-91000057D01*
X193911904Y-91000057D02*
X193959523Y-91095295D01*
X193959523Y-91095295D02*
X193959523Y-91190533D01*
X193959523Y-91190533D02*
X193911904Y-91333390D01*
X193911904Y-91333390D02*
X193340476Y-91904819D01*
X193340476Y-91904819D02*
X193959523Y-91904819D01*
X194911904Y-91904819D02*
X194340476Y-91904819D01*
X194626190Y-91904819D02*
X194626190Y-90904819D01*
X194626190Y-90904819D02*
X194530952Y-91047676D01*
X194530952Y-91047676D02*
X194435714Y-91142914D01*
X194435714Y-91142914D02*
X194340476Y-91190533D01*
X115871960Y-89654819D02*
X115538627Y-89178628D01*
X115300532Y-89654819D02*
X115300532Y-88654819D01*
X115300532Y-88654819D02*
X115681484Y-88654819D01*
X115681484Y-88654819D02*
X115776722Y-88702438D01*
X115776722Y-88702438D02*
X115824341Y-88750057D01*
X115824341Y-88750057D02*
X115871960Y-88845295D01*
X115871960Y-88845295D02*
X115871960Y-88988152D01*
X115871960Y-88988152D02*
X115824341Y-89083390D01*
X115824341Y-89083390D02*
X115776722Y-89131009D01*
X115776722Y-89131009D02*
X115681484Y-89178628D01*
X115681484Y-89178628D02*
X115300532Y-89178628D01*
X116348151Y-89654819D02*
X116538627Y-89654819D01*
X116538627Y-89654819D02*
X116633865Y-89607200D01*
X116633865Y-89607200D02*
X116681484Y-89559580D01*
X116681484Y-89559580D02*
X116776722Y-89416723D01*
X116776722Y-89416723D02*
X116824341Y-89226247D01*
X116824341Y-89226247D02*
X116824341Y-88845295D01*
X116824341Y-88845295D02*
X116776722Y-88750057D01*
X116776722Y-88750057D02*
X116729103Y-88702438D01*
X116729103Y-88702438D02*
X116633865Y-88654819D01*
X116633865Y-88654819D02*
X116443389Y-88654819D01*
X116443389Y-88654819D02*
X116348151Y-88702438D01*
X116348151Y-88702438D02*
X116300532Y-88750057D01*
X116300532Y-88750057D02*
X116252913Y-88845295D01*
X116252913Y-88845295D02*
X116252913Y-89083390D01*
X116252913Y-89083390D02*
X116300532Y-89178628D01*
X116300532Y-89178628D02*
X116348151Y-89226247D01*
X116348151Y-89226247D02*
X116443389Y-89273866D01*
X116443389Y-89273866D02*
X116633865Y-89273866D01*
X116633865Y-89273866D02*
X116729103Y-89226247D01*
X116729103Y-89226247D02*
X116776722Y-89178628D01*
X116776722Y-89178628D02*
X116824341Y-89083390D01*
X107933332Y-96459580D02*
X107885713Y-96507200D01*
X107885713Y-96507200D02*
X107742856Y-96554819D01*
X107742856Y-96554819D02*
X107647618Y-96554819D01*
X107647618Y-96554819D02*
X107504761Y-96507200D01*
X107504761Y-96507200D02*
X107409523Y-96411961D01*
X107409523Y-96411961D02*
X107361904Y-96316723D01*
X107361904Y-96316723D02*
X107314285Y-96126247D01*
X107314285Y-96126247D02*
X107314285Y-95983390D01*
X107314285Y-95983390D02*
X107361904Y-95792914D01*
X107361904Y-95792914D02*
X107409523Y-95697676D01*
X107409523Y-95697676D02*
X107504761Y-95602438D01*
X107504761Y-95602438D02*
X107647618Y-95554819D01*
X107647618Y-95554819D02*
X107742856Y-95554819D01*
X107742856Y-95554819D02*
X107885713Y-95602438D01*
X107885713Y-95602438D02*
X107933332Y-95650057D01*
X108885713Y-96554819D02*
X108314285Y-96554819D01*
X108599999Y-96554819D02*
X108599999Y-95554819D01*
X108599999Y-95554819D02*
X108504761Y-95697676D01*
X108504761Y-95697676D02*
X108409523Y-95792914D01*
X108409523Y-95792914D02*
X108314285Y-95840533D01*
X109266666Y-95650057D02*
X109314285Y-95602438D01*
X109314285Y-95602438D02*
X109409523Y-95554819D01*
X109409523Y-95554819D02*
X109647618Y-95554819D01*
X109647618Y-95554819D02*
X109742856Y-95602438D01*
X109742856Y-95602438D02*
X109790475Y-95650057D01*
X109790475Y-95650057D02*
X109838094Y-95745295D01*
X109838094Y-95745295D02*
X109838094Y-95840533D01*
X109838094Y-95840533D02*
X109790475Y-95983390D01*
X109790475Y-95983390D02*
X109219047Y-96554819D01*
X109219047Y-96554819D02*
X109838094Y-96554819D01*
X203007142Y-91692080D02*
X202959523Y-91739700D01*
X202959523Y-91739700D02*
X202816666Y-91787319D01*
X202816666Y-91787319D02*
X202721428Y-91787319D01*
X202721428Y-91787319D02*
X202578571Y-91739700D01*
X202578571Y-91739700D02*
X202483333Y-91644461D01*
X202483333Y-91644461D02*
X202435714Y-91549223D01*
X202435714Y-91549223D02*
X202388095Y-91358747D01*
X202388095Y-91358747D02*
X202388095Y-91215890D01*
X202388095Y-91215890D02*
X202435714Y-91025414D01*
X202435714Y-91025414D02*
X202483333Y-90930176D01*
X202483333Y-90930176D02*
X202578571Y-90834938D01*
X202578571Y-90834938D02*
X202721428Y-90787319D01*
X202721428Y-90787319D02*
X202816666Y-90787319D01*
X202816666Y-90787319D02*
X202959523Y-90834938D01*
X202959523Y-90834938D02*
X203007142Y-90882557D01*
X203388095Y-90882557D02*
X203435714Y-90834938D01*
X203435714Y-90834938D02*
X203530952Y-90787319D01*
X203530952Y-90787319D02*
X203769047Y-90787319D01*
X203769047Y-90787319D02*
X203864285Y-90834938D01*
X203864285Y-90834938D02*
X203911904Y-90882557D01*
X203911904Y-90882557D02*
X203959523Y-90977795D01*
X203959523Y-90977795D02*
X203959523Y-91073033D01*
X203959523Y-91073033D02*
X203911904Y-91215890D01*
X203911904Y-91215890D02*
X203340476Y-91787319D01*
X203340476Y-91787319D02*
X203959523Y-91787319D01*
X204578571Y-90787319D02*
X204673809Y-90787319D01*
X204673809Y-90787319D02*
X204769047Y-90834938D01*
X204769047Y-90834938D02*
X204816666Y-90882557D01*
X204816666Y-90882557D02*
X204864285Y-90977795D01*
X204864285Y-90977795D02*
X204911904Y-91168271D01*
X204911904Y-91168271D02*
X204911904Y-91406366D01*
X204911904Y-91406366D02*
X204864285Y-91596842D01*
X204864285Y-91596842D02*
X204816666Y-91692080D01*
X204816666Y-91692080D02*
X204769047Y-91739700D01*
X204769047Y-91739700D02*
X204673809Y-91787319D01*
X204673809Y-91787319D02*
X204578571Y-91787319D01*
X204578571Y-91787319D02*
X204483333Y-91739700D01*
X204483333Y-91739700D02*
X204435714Y-91692080D01*
X204435714Y-91692080D02*
X204388095Y-91596842D01*
X204388095Y-91596842D02*
X204340476Y-91406366D01*
X204340476Y-91406366D02*
X204340476Y-91168271D01*
X204340476Y-91168271D02*
X204388095Y-90977795D01*
X204388095Y-90977795D02*
X204435714Y-90882557D01*
X204435714Y-90882557D02*
X204483333Y-90834938D01*
X204483333Y-90834938D02*
X204578571Y-90787319D01*
X100114460Y-85359580D02*
X100066841Y-85407200D01*
X100066841Y-85407200D02*
X99923984Y-85454819D01*
X99923984Y-85454819D02*
X99828746Y-85454819D01*
X99828746Y-85454819D02*
X99685889Y-85407200D01*
X99685889Y-85407200D02*
X99590651Y-85311961D01*
X99590651Y-85311961D02*
X99543032Y-85216723D01*
X99543032Y-85216723D02*
X99495413Y-85026247D01*
X99495413Y-85026247D02*
X99495413Y-84883390D01*
X99495413Y-84883390D02*
X99543032Y-84692914D01*
X99543032Y-84692914D02*
X99590651Y-84597676D01*
X99590651Y-84597676D02*
X99685889Y-84502438D01*
X99685889Y-84502438D02*
X99828746Y-84454819D01*
X99828746Y-84454819D02*
X99923984Y-84454819D01*
X99923984Y-84454819D02*
X100066841Y-84502438D01*
X100066841Y-84502438D02*
X100114460Y-84550057D01*
X100495413Y-84550057D02*
X100543032Y-84502438D01*
X100543032Y-84502438D02*
X100638270Y-84454819D01*
X100638270Y-84454819D02*
X100876365Y-84454819D01*
X100876365Y-84454819D02*
X100971603Y-84502438D01*
X100971603Y-84502438D02*
X101019222Y-84550057D01*
X101019222Y-84550057D02*
X101066841Y-84645295D01*
X101066841Y-84645295D02*
X101066841Y-84740533D01*
X101066841Y-84740533D02*
X101019222Y-84883390D01*
X101019222Y-84883390D02*
X100447794Y-85454819D01*
X100447794Y-85454819D02*
X101066841Y-85454819D01*
X165833333Y-71559580D02*
X165785714Y-71607200D01*
X165785714Y-71607200D02*
X165642857Y-71654819D01*
X165642857Y-71654819D02*
X165547619Y-71654819D01*
X165547619Y-71654819D02*
X165404762Y-71607200D01*
X165404762Y-71607200D02*
X165309524Y-71511961D01*
X165309524Y-71511961D02*
X165261905Y-71416723D01*
X165261905Y-71416723D02*
X165214286Y-71226247D01*
X165214286Y-71226247D02*
X165214286Y-71083390D01*
X165214286Y-71083390D02*
X165261905Y-70892914D01*
X165261905Y-70892914D02*
X165309524Y-70797676D01*
X165309524Y-70797676D02*
X165404762Y-70702438D01*
X165404762Y-70702438D02*
X165547619Y-70654819D01*
X165547619Y-70654819D02*
X165642857Y-70654819D01*
X165642857Y-70654819D02*
X165785714Y-70702438D01*
X165785714Y-70702438D02*
X165833333Y-70750057D01*
X166309524Y-71654819D02*
X166500000Y-71654819D01*
X166500000Y-71654819D02*
X166595238Y-71607200D01*
X166595238Y-71607200D02*
X166642857Y-71559580D01*
X166642857Y-71559580D02*
X166738095Y-71416723D01*
X166738095Y-71416723D02*
X166785714Y-71226247D01*
X166785714Y-71226247D02*
X166785714Y-70845295D01*
X166785714Y-70845295D02*
X166738095Y-70750057D01*
X166738095Y-70750057D02*
X166690476Y-70702438D01*
X166690476Y-70702438D02*
X166595238Y-70654819D01*
X166595238Y-70654819D02*
X166404762Y-70654819D01*
X166404762Y-70654819D02*
X166309524Y-70702438D01*
X166309524Y-70702438D02*
X166261905Y-70750057D01*
X166261905Y-70750057D02*
X166214286Y-70845295D01*
X166214286Y-70845295D02*
X166214286Y-71083390D01*
X166214286Y-71083390D02*
X166261905Y-71178628D01*
X166261905Y-71178628D02*
X166309524Y-71226247D01*
X166309524Y-71226247D02*
X166404762Y-71273866D01*
X166404762Y-71273866D02*
X166595238Y-71273866D01*
X166595238Y-71273866D02*
X166690476Y-71226247D01*
X166690476Y-71226247D02*
X166738095Y-71178628D01*
X166738095Y-71178628D02*
X166785714Y-71083390D01*
X111514460Y-80659580D02*
X111466841Y-80707200D01*
X111466841Y-80707200D02*
X111323984Y-80754819D01*
X111323984Y-80754819D02*
X111228746Y-80754819D01*
X111228746Y-80754819D02*
X111085889Y-80707200D01*
X111085889Y-80707200D02*
X110990651Y-80611961D01*
X110990651Y-80611961D02*
X110943032Y-80516723D01*
X110943032Y-80516723D02*
X110895413Y-80326247D01*
X110895413Y-80326247D02*
X110895413Y-80183390D01*
X110895413Y-80183390D02*
X110943032Y-79992914D01*
X110943032Y-79992914D02*
X110990651Y-79897676D01*
X110990651Y-79897676D02*
X111085889Y-79802438D01*
X111085889Y-79802438D02*
X111228746Y-79754819D01*
X111228746Y-79754819D02*
X111323984Y-79754819D01*
X111323984Y-79754819D02*
X111466841Y-79802438D01*
X111466841Y-79802438D02*
X111514460Y-79850057D01*
X112466841Y-80754819D02*
X111895413Y-80754819D01*
X112181127Y-80754819D02*
X112181127Y-79754819D01*
X112181127Y-79754819D02*
X112085889Y-79897676D01*
X112085889Y-79897676D02*
X111990651Y-79992914D01*
X111990651Y-79992914D02*
X111895413Y-80040533D01*
X155061905Y-79254819D02*
X155061905Y-78254819D01*
X155061905Y-78254819D02*
X155300000Y-78254819D01*
X155300000Y-78254819D02*
X155442857Y-78302438D01*
X155442857Y-78302438D02*
X155538095Y-78397676D01*
X155538095Y-78397676D02*
X155585714Y-78492914D01*
X155585714Y-78492914D02*
X155633333Y-78683390D01*
X155633333Y-78683390D02*
X155633333Y-78826247D01*
X155633333Y-78826247D02*
X155585714Y-79016723D01*
X155585714Y-79016723D02*
X155538095Y-79111961D01*
X155538095Y-79111961D02*
X155442857Y-79207200D01*
X155442857Y-79207200D02*
X155300000Y-79254819D01*
X155300000Y-79254819D02*
X155061905Y-79254819D01*
X156538095Y-78254819D02*
X156061905Y-78254819D01*
X156061905Y-78254819D02*
X156014286Y-78731009D01*
X156014286Y-78731009D02*
X156061905Y-78683390D01*
X156061905Y-78683390D02*
X156157143Y-78635771D01*
X156157143Y-78635771D02*
X156395238Y-78635771D01*
X156395238Y-78635771D02*
X156490476Y-78683390D01*
X156490476Y-78683390D02*
X156538095Y-78731009D01*
X156538095Y-78731009D02*
X156585714Y-78826247D01*
X156585714Y-78826247D02*
X156585714Y-79064342D01*
X156585714Y-79064342D02*
X156538095Y-79159580D01*
X156538095Y-79159580D02*
X156490476Y-79207200D01*
X156490476Y-79207200D02*
X156395238Y-79254819D01*
X156395238Y-79254819D02*
X156157143Y-79254819D01*
X156157143Y-79254819D02*
X156061905Y-79207200D01*
X156061905Y-79207200D02*
X156014286Y-79159580D01*
X154414285Y-82054819D02*
X155033332Y-82054819D01*
X155033332Y-82054819D02*
X154699999Y-82435771D01*
X154699999Y-82435771D02*
X154842856Y-82435771D01*
X154842856Y-82435771D02*
X154938094Y-82483390D01*
X154938094Y-82483390D02*
X154985713Y-82531009D01*
X154985713Y-82531009D02*
X155033332Y-82626247D01*
X155033332Y-82626247D02*
X155033332Y-82864342D01*
X155033332Y-82864342D02*
X154985713Y-82959580D01*
X154985713Y-82959580D02*
X154938094Y-83007200D01*
X154938094Y-83007200D02*
X154842856Y-83054819D01*
X154842856Y-83054819D02*
X154557142Y-83054819D01*
X154557142Y-83054819D02*
X154461904Y-83007200D01*
X154461904Y-83007200D02*
X154414285Y-82959580D01*
X155366666Y-82388152D02*
X155604761Y-83054819D01*
X155604761Y-83054819D02*
X155842856Y-82388152D01*
X156128571Y-82054819D02*
X156747618Y-82054819D01*
X156747618Y-82054819D02*
X156414285Y-82435771D01*
X156414285Y-82435771D02*
X156557142Y-82435771D01*
X156557142Y-82435771D02*
X156652380Y-82483390D01*
X156652380Y-82483390D02*
X156699999Y-82531009D01*
X156699999Y-82531009D02*
X156747618Y-82626247D01*
X156747618Y-82626247D02*
X156747618Y-82864342D01*
X156747618Y-82864342D02*
X156699999Y-82959580D01*
X156699999Y-82959580D02*
X156652380Y-83007200D01*
X156652380Y-83007200D02*
X156557142Y-83054819D01*
X156557142Y-83054819D02*
X156271428Y-83054819D01*
X156271428Y-83054819D02*
X156176190Y-83007200D01*
X156176190Y-83007200D02*
X156128571Y-82959580D01*
X157938095Y-83054819D02*
X157938095Y-82054819D01*
X157938095Y-82054819D02*
X158319047Y-82054819D01*
X158319047Y-82054819D02*
X158414285Y-82102438D01*
X158414285Y-82102438D02*
X158461904Y-82150057D01*
X158461904Y-82150057D02*
X158509523Y-82245295D01*
X158509523Y-82245295D02*
X158509523Y-82388152D01*
X158509523Y-82388152D02*
X158461904Y-82483390D01*
X158461904Y-82483390D02*
X158414285Y-82531009D01*
X158414285Y-82531009D02*
X158319047Y-82578628D01*
X158319047Y-82578628D02*
X157938095Y-82578628D01*
X159080952Y-83054819D02*
X158985714Y-83007200D01*
X158985714Y-83007200D02*
X158938095Y-82959580D01*
X158938095Y-82959580D02*
X158890476Y-82864342D01*
X158890476Y-82864342D02*
X158890476Y-82578628D01*
X158890476Y-82578628D02*
X158938095Y-82483390D01*
X158938095Y-82483390D02*
X158985714Y-82435771D01*
X158985714Y-82435771D02*
X159080952Y-82388152D01*
X159080952Y-82388152D02*
X159223809Y-82388152D01*
X159223809Y-82388152D02*
X159319047Y-82435771D01*
X159319047Y-82435771D02*
X159366666Y-82483390D01*
X159366666Y-82483390D02*
X159414285Y-82578628D01*
X159414285Y-82578628D02*
X159414285Y-82864342D01*
X159414285Y-82864342D02*
X159366666Y-82959580D01*
X159366666Y-82959580D02*
X159319047Y-83007200D01*
X159319047Y-83007200D02*
X159223809Y-83054819D01*
X159223809Y-83054819D02*
X159080952Y-83054819D01*
X159747619Y-82388152D02*
X159938095Y-83054819D01*
X159938095Y-83054819D02*
X160128571Y-82578628D01*
X160128571Y-82578628D02*
X160319047Y-83054819D01*
X160319047Y-83054819D02*
X160509523Y-82388152D01*
X161271428Y-83007200D02*
X161176190Y-83054819D01*
X161176190Y-83054819D02*
X160985714Y-83054819D01*
X160985714Y-83054819D02*
X160890476Y-83007200D01*
X160890476Y-83007200D02*
X160842857Y-82911961D01*
X160842857Y-82911961D02*
X160842857Y-82531009D01*
X160842857Y-82531009D02*
X160890476Y-82435771D01*
X160890476Y-82435771D02*
X160985714Y-82388152D01*
X160985714Y-82388152D02*
X161176190Y-82388152D01*
X161176190Y-82388152D02*
X161271428Y-82435771D01*
X161271428Y-82435771D02*
X161319047Y-82531009D01*
X161319047Y-82531009D02*
X161319047Y-82626247D01*
X161319047Y-82626247D02*
X160842857Y-82721485D01*
X161747619Y-83054819D02*
X161747619Y-82388152D01*
X161747619Y-82578628D02*
X161795238Y-82483390D01*
X161795238Y-82483390D02*
X161842857Y-82435771D01*
X161842857Y-82435771D02*
X161938095Y-82388152D01*
X161938095Y-82388152D02*
X162033333Y-82388152D01*
X139288095Y-82544819D02*
X139288095Y-83354342D01*
X139288095Y-83354342D02*
X139335714Y-83449580D01*
X139335714Y-83449580D02*
X139383333Y-83497200D01*
X139383333Y-83497200D02*
X139478571Y-83544819D01*
X139478571Y-83544819D02*
X139669047Y-83544819D01*
X139669047Y-83544819D02*
X139764285Y-83497200D01*
X139764285Y-83497200D02*
X139811904Y-83449580D01*
X139811904Y-83449580D02*
X139859523Y-83354342D01*
X139859523Y-83354342D02*
X139859523Y-82544819D01*
X140764285Y-82878152D02*
X140764285Y-83544819D01*
X140526190Y-82497200D02*
X140288095Y-83211485D01*
X140288095Y-83211485D02*
X140907142Y-83211485D01*
X156554819Y-56666666D02*
X156078628Y-56999999D01*
X156554819Y-57238094D02*
X155554819Y-57238094D01*
X155554819Y-57238094D02*
X155554819Y-56857142D01*
X155554819Y-56857142D02*
X155602438Y-56761904D01*
X155602438Y-56761904D02*
X155650057Y-56714285D01*
X155650057Y-56714285D02*
X155745295Y-56666666D01*
X155745295Y-56666666D02*
X155888152Y-56666666D01*
X155888152Y-56666666D02*
X155983390Y-56714285D01*
X155983390Y-56714285D02*
X156031009Y-56761904D01*
X156031009Y-56761904D02*
X156078628Y-56857142D01*
X156078628Y-56857142D02*
X156078628Y-57238094D01*
X156554819Y-55714285D02*
X156554819Y-56285713D01*
X156554819Y-55999999D02*
X155554819Y-55999999D01*
X155554819Y-55999999D02*
X155697676Y-56095237D01*
X155697676Y-56095237D02*
X155792914Y-56190475D01*
X155792914Y-56190475D02*
X155840533Y-56285713D01*
X148407142Y-100849580D02*
X148359523Y-100897200D01*
X148359523Y-100897200D02*
X148216666Y-100944819D01*
X148216666Y-100944819D02*
X148121428Y-100944819D01*
X148121428Y-100944819D02*
X147978571Y-100897200D01*
X147978571Y-100897200D02*
X147883333Y-100801961D01*
X147883333Y-100801961D02*
X147835714Y-100706723D01*
X147835714Y-100706723D02*
X147788095Y-100516247D01*
X147788095Y-100516247D02*
X147788095Y-100373390D01*
X147788095Y-100373390D02*
X147835714Y-100182914D01*
X147835714Y-100182914D02*
X147883333Y-100087676D01*
X147883333Y-100087676D02*
X147978571Y-99992438D01*
X147978571Y-99992438D02*
X148121428Y-99944819D01*
X148121428Y-99944819D02*
X148216666Y-99944819D01*
X148216666Y-99944819D02*
X148359523Y-99992438D01*
X148359523Y-99992438D02*
X148407142Y-100040057D01*
X149359523Y-100944819D02*
X148788095Y-100944819D01*
X149073809Y-100944819D02*
X149073809Y-99944819D01*
X149073809Y-99944819D02*
X148978571Y-100087676D01*
X148978571Y-100087676D02*
X148883333Y-100182914D01*
X148883333Y-100182914D02*
X148788095Y-100230533D01*
X150216666Y-100278152D02*
X150216666Y-100944819D01*
X149978571Y-99897200D02*
X149740476Y-100611485D01*
X149740476Y-100611485D02*
X150359523Y-100611485D01*
X140904819Y-94932857D02*
X140428628Y-95266190D01*
X140904819Y-95504285D02*
X139904819Y-95504285D01*
X139904819Y-95504285D02*
X139904819Y-95123333D01*
X139904819Y-95123333D02*
X139952438Y-95028095D01*
X139952438Y-95028095D02*
X140000057Y-94980476D01*
X140000057Y-94980476D02*
X140095295Y-94932857D01*
X140095295Y-94932857D02*
X140238152Y-94932857D01*
X140238152Y-94932857D02*
X140333390Y-94980476D01*
X140333390Y-94980476D02*
X140381009Y-95028095D01*
X140381009Y-95028095D02*
X140428628Y-95123333D01*
X140428628Y-95123333D02*
X140428628Y-95504285D01*
X140904819Y-93980476D02*
X140904819Y-94551904D01*
X140904819Y-94266190D02*
X139904819Y-94266190D01*
X139904819Y-94266190D02*
X140047676Y-94361428D01*
X140047676Y-94361428D02*
X140142914Y-94456666D01*
X140142914Y-94456666D02*
X140190533Y-94551904D01*
X140904819Y-93028095D02*
X140904819Y-93599523D01*
X140904819Y-93313809D02*
X139904819Y-93313809D01*
X139904819Y-93313809D02*
X140047676Y-93409047D01*
X140047676Y-93409047D02*
X140142914Y-93504285D01*
X140142914Y-93504285D02*
X140190533Y-93599523D01*
X153233333Y-71254819D02*
X152757143Y-71254819D01*
X152757143Y-71254819D02*
X152757143Y-70254819D01*
X153519048Y-70350057D02*
X153566667Y-70302438D01*
X153566667Y-70302438D02*
X153661905Y-70254819D01*
X153661905Y-70254819D02*
X153900000Y-70254819D01*
X153900000Y-70254819D02*
X153995238Y-70302438D01*
X153995238Y-70302438D02*
X154042857Y-70350057D01*
X154042857Y-70350057D02*
X154090476Y-70445295D01*
X154090476Y-70445295D02*
X154090476Y-70540533D01*
X154090476Y-70540533D02*
X154042857Y-70683390D01*
X154042857Y-70683390D02*
X153471429Y-71254819D01*
X153471429Y-71254819D02*
X154090476Y-71254819D01*
X175557142Y-89904819D02*
X175223809Y-89428628D01*
X174985714Y-89904819D02*
X174985714Y-88904819D01*
X174985714Y-88904819D02*
X175366666Y-88904819D01*
X175366666Y-88904819D02*
X175461904Y-88952438D01*
X175461904Y-88952438D02*
X175509523Y-89000057D01*
X175509523Y-89000057D02*
X175557142Y-89095295D01*
X175557142Y-89095295D02*
X175557142Y-89238152D01*
X175557142Y-89238152D02*
X175509523Y-89333390D01*
X175509523Y-89333390D02*
X175461904Y-89381009D01*
X175461904Y-89381009D02*
X175366666Y-89428628D01*
X175366666Y-89428628D02*
X174985714Y-89428628D01*
X176509523Y-89904819D02*
X175938095Y-89904819D01*
X176223809Y-89904819D02*
X176223809Y-88904819D01*
X176223809Y-88904819D02*
X176128571Y-89047676D01*
X176128571Y-89047676D02*
X176033333Y-89142914D01*
X176033333Y-89142914D02*
X175938095Y-89190533D01*
X176842857Y-88904819D02*
X177461904Y-88904819D01*
X177461904Y-88904819D02*
X177128571Y-89285771D01*
X177128571Y-89285771D02*
X177271428Y-89285771D01*
X177271428Y-89285771D02*
X177366666Y-89333390D01*
X177366666Y-89333390D02*
X177414285Y-89381009D01*
X177414285Y-89381009D02*
X177461904Y-89476247D01*
X177461904Y-89476247D02*
X177461904Y-89714342D01*
X177461904Y-89714342D02*
X177414285Y-89809580D01*
X177414285Y-89809580D02*
X177366666Y-89857200D01*
X177366666Y-89857200D02*
X177271428Y-89904819D01*
X177271428Y-89904819D02*
X176985714Y-89904819D01*
X176985714Y-89904819D02*
X176890476Y-89857200D01*
X176890476Y-89857200D02*
X176842857Y-89809580D01*
X185207142Y-88409580D02*
X185159523Y-88457200D01*
X185159523Y-88457200D02*
X185016666Y-88504819D01*
X185016666Y-88504819D02*
X184921428Y-88504819D01*
X184921428Y-88504819D02*
X184778571Y-88457200D01*
X184778571Y-88457200D02*
X184683333Y-88361961D01*
X184683333Y-88361961D02*
X184635714Y-88266723D01*
X184635714Y-88266723D02*
X184588095Y-88076247D01*
X184588095Y-88076247D02*
X184588095Y-87933390D01*
X184588095Y-87933390D02*
X184635714Y-87742914D01*
X184635714Y-87742914D02*
X184683333Y-87647676D01*
X184683333Y-87647676D02*
X184778571Y-87552438D01*
X184778571Y-87552438D02*
X184921428Y-87504819D01*
X184921428Y-87504819D02*
X185016666Y-87504819D01*
X185016666Y-87504819D02*
X185159523Y-87552438D01*
X185159523Y-87552438D02*
X185207142Y-87600057D01*
X186159523Y-88504819D02*
X185588095Y-88504819D01*
X185873809Y-88504819D02*
X185873809Y-87504819D01*
X185873809Y-87504819D02*
X185778571Y-87647676D01*
X185778571Y-87647676D02*
X185683333Y-87742914D01*
X185683333Y-87742914D02*
X185588095Y-87790533D01*
X186730952Y-87933390D02*
X186635714Y-87885771D01*
X186635714Y-87885771D02*
X186588095Y-87838152D01*
X186588095Y-87838152D02*
X186540476Y-87742914D01*
X186540476Y-87742914D02*
X186540476Y-87695295D01*
X186540476Y-87695295D02*
X186588095Y-87600057D01*
X186588095Y-87600057D02*
X186635714Y-87552438D01*
X186635714Y-87552438D02*
X186730952Y-87504819D01*
X186730952Y-87504819D02*
X186921428Y-87504819D01*
X186921428Y-87504819D02*
X187016666Y-87552438D01*
X187016666Y-87552438D02*
X187064285Y-87600057D01*
X187064285Y-87600057D02*
X187111904Y-87695295D01*
X187111904Y-87695295D02*
X187111904Y-87742914D01*
X187111904Y-87742914D02*
X187064285Y-87838152D01*
X187064285Y-87838152D02*
X187016666Y-87885771D01*
X187016666Y-87885771D02*
X186921428Y-87933390D01*
X186921428Y-87933390D02*
X186730952Y-87933390D01*
X186730952Y-87933390D02*
X186635714Y-87981009D01*
X186635714Y-87981009D02*
X186588095Y-88028628D01*
X186588095Y-88028628D02*
X186540476Y-88123866D01*
X186540476Y-88123866D02*
X186540476Y-88314342D01*
X186540476Y-88314342D02*
X186588095Y-88409580D01*
X186588095Y-88409580D02*
X186635714Y-88457200D01*
X186635714Y-88457200D02*
X186730952Y-88504819D01*
X186730952Y-88504819D02*
X186921428Y-88504819D01*
X186921428Y-88504819D02*
X187016666Y-88457200D01*
X187016666Y-88457200D02*
X187064285Y-88409580D01*
X187064285Y-88409580D02*
X187111904Y-88314342D01*
X187111904Y-88314342D02*
X187111904Y-88123866D01*
X187111904Y-88123866D02*
X187064285Y-88028628D01*
X187064285Y-88028628D02*
X187016666Y-87981009D01*
X187016666Y-87981009D02*
X186921428Y-87933390D01*
X166261905Y-73654819D02*
X166261905Y-72654819D01*
X166261905Y-72654819D02*
X166500000Y-72654819D01*
X166500000Y-72654819D02*
X166642857Y-72702438D01*
X166642857Y-72702438D02*
X166738095Y-72797676D01*
X166738095Y-72797676D02*
X166785714Y-72892914D01*
X166785714Y-72892914D02*
X166833333Y-73083390D01*
X166833333Y-73083390D02*
X166833333Y-73226247D01*
X166833333Y-73226247D02*
X166785714Y-73416723D01*
X166785714Y-73416723D02*
X166738095Y-73511961D01*
X166738095Y-73511961D02*
X166642857Y-73607200D01*
X166642857Y-73607200D02*
X166500000Y-73654819D01*
X166500000Y-73654819D02*
X166261905Y-73654819D01*
X167690476Y-72988152D02*
X167690476Y-73654819D01*
X167452381Y-72607200D02*
X167214286Y-73321485D01*
X167214286Y-73321485D02*
X167833333Y-73321485D01*
X195288095Y-87229819D02*
X195288095Y-88039342D01*
X195288095Y-88039342D02*
X195335714Y-88134580D01*
X195335714Y-88134580D02*
X195383333Y-88182200D01*
X195383333Y-88182200D02*
X195478571Y-88229819D01*
X195478571Y-88229819D02*
X195669047Y-88229819D01*
X195669047Y-88229819D02*
X195764285Y-88182200D01*
X195764285Y-88182200D02*
X195811904Y-88134580D01*
X195811904Y-88134580D02*
X195859523Y-88039342D01*
X195859523Y-88039342D02*
X195859523Y-87229819D01*
X196764285Y-87229819D02*
X196573809Y-87229819D01*
X196573809Y-87229819D02*
X196478571Y-87277438D01*
X196478571Y-87277438D02*
X196430952Y-87325057D01*
X196430952Y-87325057D02*
X196335714Y-87467914D01*
X196335714Y-87467914D02*
X196288095Y-87658390D01*
X196288095Y-87658390D02*
X196288095Y-88039342D01*
X196288095Y-88039342D02*
X196335714Y-88134580D01*
X196335714Y-88134580D02*
X196383333Y-88182200D01*
X196383333Y-88182200D02*
X196478571Y-88229819D01*
X196478571Y-88229819D02*
X196669047Y-88229819D01*
X196669047Y-88229819D02*
X196764285Y-88182200D01*
X196764285Y-88182200D02*
X196811904Y-88134580D01*
X196811904Y-88134580D02*
X196859523Y-88039342D01*
X196859523Y-88039342D02*
X196859523Y-87801247D01*
X196859523Y-87801247D02*
X196811904Y-87706009D01*
X196811904Y-87706009D02*
X196764285Y-87658390D01*
X196764285Y-87658390D02*
X196669047Y-87610771D01*
X196669047Y-87610771D02*
X196478571Y-87610771D01*
X196478571Y-87610771D02*
X196383333Y-87658390D01*
X196383333Y-87658390D02*
X196335714Y-87706009D01*
X196335714Y-87706009D02*
X196288095Y-87801247D01*
X116314460Y-80454819D02*
X115838270Y-80454819D01*
X115838270Y-80454819D02*
X115838270Y-79454819D01*
X117171603Y-80454819D02*
X116600175Y-80454819D01*
X116885889Y-80454819D02*
X116885889Y-79454819D01*
X116885889Y-79454819D02*
X116790651Y-79597676D01*
X116790651Y-79597676D02*
X116695413Y-79692914D01*
X116695413Y-79692914D02*
X116600175Y-79740533D01*
X143009580Y-94332857D02*
X143057200Y-94380476D01*
X143057200Y-94380476D02*
X143104819Y-94523333D01*
X143104819Y-94523333D02*
X143104819Y-94618571D01*
X143104819Y-94618571D02*
X143057200Y-94761428D01*
X143057200Y-94761428D02*
X142961961Y-94856666D01*
X142961961Y-94856666D02*
X142866723Y-94904285D01*
X142866723Y-94904285D02*
X142676247Y-94951904D01*
X142676247Y-94951904D02*
X142533390Y-94951904D01*
X142533390Y-94951904D02*
X142342914Y-94904285D01*
X142342914Y-94904285D02*
X142247676Y-94856666D01*
X142247676Y-94856666D02*
X142152438Y-94761428D01*
X142152438Y-94761428D02*
X142104819Y-94618571D01*
X142104819Y-94618571D02*
X142104819Y-94523333D01*
X142104819Y-94523333D02*
X142152438Y-94380476D01*
X142152438Y-94380476D02*
X142200057Y-94332857D01*
X143104819Y-93380476D02*
X143104819Y-93951904D01*
X143104819Y-93666190D02*
X142104819Y-93666190D01*
X142104819Y-93666190D02*
X142247676Y-93761428D01*
X142247676Y-93761428D02*
X142342914Y-93856666D01*
X142342914Y-93856666D02*
X142390533Y-93951904D01*
X142104819Y-92475714D02*
X142104819Y-92951904D01*
X142104819Y-92951904D02*
X142581009Y-92999523D01*
X142581009Y-92999523D02*
X142533390Y-92951904D01*
X142533390Y-92951904D02*
X142485771Y-92856666D01*
X142485771Y-92856666D02*
X142485771Y-92618571D01*
X142485771Y-92618571D02*
X142533390Y-92523333D01*
X142533390Y-92523333D02*
X142581009Y-92475714D01*
X142581009Y-92475714D02*
X142676247Y-92428095D01*
X142676247Y-92428095D02*
X142914342Y-92428095D01*
X142914342Y-92428095D02*
X143009580Y-92475714D01*
X143009580Y-92475714D02*
X143057200Y-92523333D01*
X143057200Y-92523333D02*
X143104819Y-92618571D01*
X143104819Y-92618571D02*
X143104819Y-92856666D01*
X143104819Y-92856666D02*
X143057200Y-92951904D01*
X143057200Y-92951904D02*
X143009580Y-92999523D01*
X208866666Y-98254819D02*
X208866666Y-98969104D01*
X208866666Y-98969104D02*
X208819047Y-99111961D01*
X208819047Y-99111961D02*
X208723809Y-99207200D01*
X208723809Y-99207200D02*
X208580952Y-99254819D01*
X208580952Y-99254819D02*
X208485714Y-99254819D01*
X209771428Y-98254819D02*
X209580952Y-98254819D01*
X209580952Y-98254819D02*
X209485714Y-98302438D01*
X209485714Y-98302438D02*
X209438095Y-98350057D01*
X209438095Y-98350057D02*
X209342857Y-98492914D01*
X209342857Y-98492914D02*
X209295238Y-98683390D01*
X209295238Y-98683390D02*
X209295238Y-99064342D01*
X209295238Y-99064342D02*
X209342857Y-99159580D01*
X209342857Y-99159580D02*
X209390476Y-99207200D01*
X209390476Y-99207200D02*
X209485714Y-99254819D01*
X209485714Y-99254819D02*
X209676190Y-99254819D01*
X209676190Y-99254819D02*
X209771428Y-99207200D01*
X209771428Y-99207200D02*
X209819047Y-99159580D01*
X209819047Y-99159580D02*
X209866666Y-99064342D01*
X209866666Y-99064342D02*
X209866666Y-98826247D01*
X209866666Y-98826247D02*
X209819047Y-98731009D01*
X209819047Y-98731009D02*
X209771428Y-98683390D01*
X209771428Y-98683390D02*
X209676190Y-98635771D01*
X209676190Y-98635771D02*
X209485714Y-98635771D01*
X209485714Y-98635771D02*
X209390476Y-98683390D01*
X209390476Y-98683390D02*
X209342857Y-98731009D01*
X209342857Y-98731009D02*
X209295238Y-98826247D01*
X157376666Y-96829819D02*
X157376666Y-97544104D01*
X157376666Y-97544104D02*
X157329047Y-97686961D01*
X157329047Y-97686961D02*
X157233809Y-97782200D01*
X157233809Y-97782200D02*
X157090952Y-97829819D01*
X157090952Y-97829819D02*
X156995714Y-97829819D01*
X158329047Y-96829819D02*
X157852857Y-96829819D01*
X157852857Y-96829819D02*
X157805238Y-97306009D01*
X157805238Y-97306009D02*
X157852857Y-97258390D01*
X157852857Y-97258390D02*
X157948095Y-97210771D01*
X157948095Y-97210771D02*
X158186190Y-97210771D01*
X158186190Y-97210771D02*
X158281428Y-97258390D01*
X158281428Y-97258390D02*
X158329047Y-97306009D01*
X158329047Y-97306009D02*
X158376666Y-97401247D01*
X158376666Y-97401247D02*
X158376666Y-97639342D01*
X158376666Y-97639342D02*
X158329047Y-97734580D01*
X158329047Y-97734580D02*
X158281428Y-97782200D01*
X158281428Y-97782200D02*
X158186190Y-97829819D01*
X158186190Y-97829819D02*
X157948095Y-97829819D01*
X157948095Y-97829819D02*
X157852857Y-97782200D01*
X157852857Y-97782200D02*
X157805238Y-97734580D01*
D11*
%TO.C,C5*%
X163151248Y-81610000D02*
X164573752Y-81610000D01*
X163151248Y-79790000D02*
X164573752Y-79790000D01*
%TO.C,C7*%
X163151248Y-76610000D02*
X164573752Y-76610000D01*
X163151248Y-74790000D02*
X164573752Y-74790000D01*
%TO.C,C8*%
X163151248Y-79110000D02*
X164573752Y-79110000D01*
X163151248Y-77290000D02*
X164573752Y-77290000D01*
%TO.C,C10*%
X170710000Y-70051248D02*
X170710000Y-71473752D01*
X168890000Y-70051248D02*
X168890000Y-71473752D01*
%TO.C,D6*%
X111706127Y-91960000D02*
X114566127Y-91960000D01*
X114566127Y-90040000D02*
X111706127Y-90040000D01*
X114566127Y-91960000D02*
X114566127Y-90040000D01*
D10*
%TO.C,U3*%
X99175000Y-95375000D02*
X99175000Y-96175000D01*
X99175000Y-95375000D02*
X104725000Y-95375000D01*
X99175000Y-101925000D02*
X99175000Y-101025000D01*
X99175000Y-101925000D02*
X104725000Y-101925000D01*
X104725000Y-95375000D02*
X104725000Y-96275000D01*
X104725000Y-101925000D02*
X104725000Y-101025000D01*
D11*
X98537500Y-96175000D02*
X98297500Y-95845000D01*
X98777500Y-95845000D01*
X98537500Y-96175000D01*
G36*
X98537500Y-96175000D02*
G01*
X98297500Y-95845000D01*
X98777500Y-95845000D01*
X98537500Y-96175000D01*
G37*
%TO.C,R3*%
X101913903Y-81077500D02*
X102423351Y-81077500D01*
X101913903Y-82122500D02*
X102423351Y-82122500D01*
%TO.C,C6*%
X157290000Y-66766233D02*
X157290000Y-67058767D01*
X158310000Y-66766233D02*
X158310000Y-67058767D01*
%TO.C,C13*%
X100823752Y-92740000D02*
X99401248Y-92740000D01*
X100823752Y-94560000D02*
X99401248Y-94560000D01*
%TO.C,R4*%
X103488903Y-88077500D02*
X103998351Y-88077500D01*
X103488903Y-89122500D02*
X103998351Y-89122500D01*
%TO.C,R5*%
X103488903Y-86277500D02*
X103998351Y-86277500D01*
X103488903Y-87322500D02*
X103998351Y-87322500D01*
D10*
%TO.C,U5*%
X167675000Y-90975000D02*
X167675000Y-95125000D01*
X172825000Y-90975000D02*
X172825000Y-95125000D01*
D11*
X173055000Y-90615000D02*
X172725000Y-90375000D01*
X173055000Y-90135000D01*
X173055000Y-90615000D01*
G36*
X173055000Y-90615000D02*
G01*
X172725000Y-90375000D01*
X173055000Y-90135000D01*
X173055000Y-90615000D01*
G37*
%TO.C,R12*%
X140684879Y-99710000D02*
X141020121Y-99710000D01*
X140684879Y-100470000D02*
X141020121Y-100470000D01*
%TO.C,D2*%
X158540000Y-55215000D02*
X158540000Y-58075000D01*
X160460000Y-55215000D02*
X158540000Y-55215000D01*
X160460000Y-58075000D02*
X160460000Y-55215000D01*
%TO.C,J3*%
X174200000Y-55600000D02*
X183400000Y-55600000D01*
X174200000Y-64100000D02*
X174200000Y-55600000D01*
X174200000Y-70300000D02*
X174200000Y-68500000D01*
X176300000Y-70300000D02*
X174200000Y-70300000D01*
X182000000Y-70600000D02*
X183700000Y-70600000D01*
X183400000Y-55600000D02*
X183400000Y-70300000D01*
X183400000Y-70300000D02*
X181300000Y-70300000D01*
X183700000Y-70600000D02*
X183700000Y-69000000D01*
%TO.C,J4*%
X86740000Y-88015000D02*
X87740000Y-87015000D01*
X86740000Y-98885000D02*
X86740000Y-88015000D01*
X87740000Y-87015000D02*
X96860000Y-87015000D01*
X87740000Y-99885000D02*
X86740000Y-98885000D01*
X96860000Y-87015000D02*
X96860000Y-89798233D01*
X96860000Y-92798233D02*
X96860000Y-91101767D01*
X96860000Y-95440000D02*
X96860000Y-94101767D01*
X96860000Y-99885000D02*
X87740000Y-99885000D01*
X96860000Y-99885000D02*
X96860000Y-97460000D01*
%TO.C,J2*%
X127910000Y-73275000D02*
X128480000Y-73275000D01*
X127910000Y-78475000D02*
X127910000Y-73275000D01*
X127910000Y-78475000D02*
X128480000Y-78475000D01*
X128480000Y-79915000D02*
X128480000Y-78475000D01*
X130000000Y-73275000D02*
X131020000Y-73275000D01*
X130000000Y-78475000D02*
X131020000Y-78475000D01*
X132540000Y-73275000D02*
X133560000Y-73275000D01*
X132540000Y-78475000D02*
X133560000Y-78475000D01*
X135080000Y-73275000D02*
X136100000Y-73275000D01*
X135080000Y-78475000D02*
X136100000Y-78475000D01*
X137620000Y-73275000D02*
X138640000Y-73275000D01*
X137620000Y-78475000D02*
X138640000Y-78475000D01*
X140160000Y-73275000D02*
X140730000Y-73275000D01*
X140160000Y-78475000D02*
X140730000Y-78475000D01*
X140730000Y-78475000D02*
X140730000Y-73275000D01*
%TO.C,R14*%
X200927500Y-90082776D02*
X200927500Y-90592224D01*
X201972500Y-90082776D02*
X201972500Y-90592224D01*
%TO.C,D1*%
X151410000Y-61400000D02*
X147550000Y-61400000D01*
X151410000Y-63400000D02*
X147550000Y-63400000D01*
X151410000Y-63400000D02*
X151410000Y-61400000D01*
%TO.C,U2*%
X164367500Y-64735000D02*
X162417500Y-64735000D01*
X164367500Y-64735000D02*
X166317500Y-64735000D01*
X164367500Y-69855000D02*
X162417500Y-69855000D01*
X164367500Y-69855000D02*
X166317500Y-69855000D01*
X167307500Y-70090000D02*
X166827500Y-70090000D01*
X167067500Y-69760000D01*
X167307500Y-70090000D01*
G36*
X167307500Y-70090000D02*
G01*
X166827500Y-70090000D01*
X167067500Y-69760000D01*
X167307500Y-70090000D01*
G37*
%TO.C,C16*%
X157745000Y-89140000D02*
X160095000Y-89140000D01*
X157745000Y-94895563D02*
X157745000Y-89140000D01*
X158809437Y-95960000D02*
X157745000Y-94895563D01*
X158809437Y-95960000D02*
X160095000Y-95960000D01*
X158913750Y-96593750D02*
X159701250Y-96593750D01*
X159307500Y-96987500D02*
X159307500Y-96200000D01*
X163500563Y-95960000D02*
X162215000Y-95960000D01*
X163500563Y-95960000D02*
X164565000Y-94895563D01*
X164565000Y-89140000D02*
X162215000Y-89140000D01*
X164565000Y-94895563D02*
X164565000Y-89140000D01*
%TO.C,SW2*%
X143750000Y-92540000D02*
X144750000Y-92540000D01*
X143750000Y-93540000D02*
X143750000Y-92540000D01*
X145750000Y-94540000D02*
X145750000Y-97140000D01*
X151750000Y-92590000D02*
X145950000Y-92590000D01*
X151850000Y-99090000D02*
X145850000Y-99090000D01*
X151950000Y-94540000D02*
X151950000Y-97140000D01*
%TO.C,C17*%
X165245000Y-94058748D02*
X165245000Y-95481252D01*
X167065000Y-94058748D02*
X167065000Y-95481252D01*
%TO.C,R6*%
X102423351Y-82677500D02*
X101913903Y-82677500D01*
X102423351Y-83722500D02*
X101913903Y-83722500D01*
%TO.C,J1*%
X142000000Y-55900000D02*
X142000000Y-56150000D01*
X142000000Y-58450000D02*
X142000000Y-60300000D01*
X142000000Y-60300000D02*
X142450000Y-60300000D01*
X147600000Y-60850000D02*
X147150000Y-60850000D01*
X147600000Y-60850000D02*
X147600000Y-60400000D01*
X149800000Y-55900000D02*
X149800000Y-56150000D01*
X149800000Y-58450000D02*
X149800000Y-60300000D01*
X149800000Y-60300000D02*
X149350000Y-60300000D01*
%TO.C,U1*%
X106018627Y-80690000D02*
X105218627Y-80690000D01*
X106018627Y-80690000D02*
X106818627Y-80690000D01*
X106018627Y-83810000D02*
X105218627Y-83810000D01*
X106018627Y-83810000D02*
X106818627Y-83810000D01*
X107558627Y-84090000D02*
X107078627Y-84090000D01*
X107318627Y-83760000D01*
X107558627Y-84090000D01*
G36*
X107558627Y-84090000D02*
G01*
X107078627Y-84090000D01*
X107318627Y-83760000D01*
X107558627Y-84090000D01*
G37*
%TO.C,R2*%
X169377500Y-57054724D02*
X169377500Y-56545276D01*
X170422500Y-57054724D02*
X170422500Y-56545276D01*
%TO.C,R10*%
X106820000Y-98434879D02*
X106820000Y-98770121D01*
X107580000Y-98434879D02*
X107580000Y-98770121D01*
%TO.C,R7*%
X159277500Y-67167224D02*
X159277500Y-66657776D01*
X160322500Y-67167224D02*
X160322500Y-66657776D01*
%TO.C,C11*%
X168790000Y-66098733D02*
X168790000Y-66391267D01*
X169810000Y-66098733D02*
X169810000Y-66391267D01*
%TO.C,R8*%
X158370276Y-80177500D02*
X158879724Y-80177500D01*
X158370276Y-81222500D02*
X158879724Y-81222500D01*
%TO.C,C4*%
X108862379Y-85090000D02*
X107439875Y-85090000D01*
X108862379Y-86910000D02*
X107439875Y-86910000D01*
%TO.C,C19*%
X173445000Y-94058748D02*
X173445000Y-95481252D01*
X175265000Y-94058748D02*
X175265000Y-95481252D01*
%TO.C,SW1*%
X119300000Y-79800000D02*
X119300000Y-73800000D01*
X123850000Y-73700000D02*
X121250000Y-73700000D01*
X123850000Y-79900000D02*
X121250000Y-79900000D01*
X124850000Y-71700000D02*
X125850000Y-71700000D01*
X125800000Y-79700000D02*
X125800000Y-73900000D01*
X125850000Y-71700000D02*
X125850000Y-72700000D01*
%TO.C,D3*%
X170940000Y-55975000D02*
X170940000Y-58835000D01*
X170940000Y-58835000D02*
X172860000Y-58835000D01*
X172860000Y-58835000D02*
X172860000Y-55975000D01*
%TO.C,C3*%
X108862379Y-87490000D02*
X107439875Y-87490000D01*
X108862379Y-89310000D02*
X107439875Y-89310000D01*
%TO.C,C21*%
X192740000Y-94058748D02*
X192740000Y-95481252D01*
X194560000Y-94058748D02*
X194560000Y-95481252D01*
%TO.C,R9*%
X112696403Y-88677500D02*
X113205851Y-88677500D01*
X112696403Y-89722500D02*
X113205851Y-89722500D01*
%TO.C,C12*%
X108862379Y-89890000D02*
X107439875Y-89890000D01*
X108862379Y-91710000D02*
X107439875Y-91710000D01*
%TO.C,C20*%
X200940000Y-94058748D02*
X200940000Y-95481252D01*
X202760000Y-94058748D02*
X202760000Y-95481252D01*
%TO.C,C2*%
X103597360Y-84490000D02*
X103889894Y-84490000D01*
X103597360Y-85510000D02*
X103889894Y-85510000D01*
%TO.C,C9*%
X163178767Y-70690000D02*
X162886233Y-70690000D01*
X163178767Y-71710000D02*
X162886233Y-71710000D01*
%TO.C,C1*%
X108571127Y-81451248D02*
X108571127Y-82873752D01*
X110391127Y-81451248D02*
X110391127Y-82873752D01*
%TO.C,D5*%
X157825000Y-79660000D02*
X160685000Y-79660000D01*
X160685000Y-77740000D02*
X157825000Y-77740000D01*
X160685000Y-79660000D02*
X160685000Y-77740000D01*
%TO.C,U4*%
X119600000Y-82890000D02*
X119600000Y-83890000D01*
X119600000Y-82890000D02*
X121100000Y-82890000D01*
X119600000Y-108740000D02*
X119600000Y-102540000D01*
X138000000Y-82890000D02*
X136500000Y-82890000D01*
X138000000Y-83890000D02*
X138000000Y-82890000D01*
X138000000Y-108740000D02*
X119600000Y-108740000D01*
X138000000Y-108740000D02*
X138000000Y-102540000D01*
X138000000Y-102365000D02*
X138000000Y-101865000D01*
X138500000Y-101865000D01*
X138000000Y-102365000D01*
G36*
X138000000Y-102365000D02*
G01*
X138000000Y-101865000D01*
X138500000Y-101865000D01*
X138000000Y-102365000D01*
G37*
%TO.C,R1*%
X156977500Y-57042224D02*
X156977500Y-56532776D01*
X158022500Y-57042224D02*
X158022500Y-56532776D01*
%TO.C,C14*%
X144176248Y-99780000D02*
X145598752Y-99780000D01*
X144176248Y-101600000D02*
X145598752Y-101600000D01*
%TO.C,R11*%
X139927500Y-97335276D02*
X139927500Y-97844724D01*
X140972500Y-97335276D02*
X140972500Y-97844724D01*
%TO.C,L2*%
X154680000Y-70330000D02*
X154680000Y-76570000D01*
X156450000Y-70330000D02*
X154680000Y-70330000D01*
X156450000Y-76570000D02*
X154680000Y-76570000D01*
X159300000Y-69950000D02*
X161300000Y-69950000D01*
X160920000Y-70330000D02*
X159150000Y-70330000D01*
X160920000Y-70330000D02*
X160920000Y-76570000D01*
X160920000Y-76570000D02*
X159150000Y-76570000D01*
X161300000Y-69950000D02*
X161300000Y-71950000D01*
%TO.C,R13*%
X173432500Y-90082776D02*
X173432500Y-90592224D01*
X174477500Y-90082776D02*
X174477500Y-90592224D01*
%TO.C,C18*%
X185240000Y-89140000D02*
X187590000Y-89140000D01*
X185240000Y-94895563D02*
X185240000Y-89140000D01*
X186304437Y-95960000D02*
X185240000Y-94895563D01*
X186304437Y-95960000D02*
X187590000Y-95960000D01*
X186408750Y-96593750D02*
X187196250Y-96593750D01*
X186802500Y-96987500D02*
X186802500Y-96200000D01*
X190995563Y-95960000D02*
X189710000Y-95960000D01*
X190995563Y-95960000D02*
X192060000Y-94895563D01*
X192060000Y-89140000D02*
X189710000Y-89140000D01*
X192060000Y-94895563D02*
X192060000Y-89140000D01*
%TO.C,D4*%
X161417500Y-72200000D02*
X161417500Y-74200000D01*
X161417500Y-72200000D02*
X165277500Y-72200000D01*
X161417500Y-74200000D02*
X165277500Y-74200000D01*
D10*
%TO.C,U6*%
X195170000Y-90975000D02*
X195170000Y-95125000D01*
X200320000Y-90975000D02*
X200320000Y-95125000D01*
D11*
X200550000Y-90615000D02*
X200220000Y-90375000D01*
X200550000Y-90135000D01*
X200550000Y-90615000D01*
G36*
X200550000Y-90615000D02*
G01*
X200220000Y-90375000D01*
X200550000Y-90135000D01*
X200550000Y-90615000D01*
G37*
%TO.C,L1*%
X110961127Y-81430000D02*
X110961127Y-87670000D01*
X112731127Y-81430000D02*
X110961127Y-81430000D01*
X112731127Y-87670000D02*
X110961127Y-87670000D01*
X115581127Y-81050000D02*
X117581127Y-81050000D01*
X117201127Y-81430000D02*
X115431127Y-81430000D01*
X117201127Y-81430000D02*
X117201127Y-87670000D01*
X117201127Y-87670000D02*
X115431127Y-87670000D01*
X117581127Y-81050000D02*
X117581127Y-83050000D01*
%TO.C,C15*%
X141715000Y-97621252D02*
X141715000Y-97098748D01*
X143185000Y-97621252D02*
X143185000Y-97098748D01*
%TO.C,J6*%
X185715000Y-97990000D02*
X188498233Y-97990000D01*
X185715000Y-107110000D02*
X185715000Y-97990000D01*
X186715000Y-108110000D02*
X185715000Y-107110000D01*
X191498233Y-97990000D02*
X189801767Y-97990000D01*
X194498233Y-97990000D02*
X192801767Y-97990000D01*
X197498233Y-97990000D02*
X195801767Y-97990000D01*
X200498233Y-97990000D02*
X198801767Y-97990000D01*
X203140000Y-97990000D02*
X201801767Y-97990000D01*
X206585000Y-108110000D02*
X186715000Y-108110000D01*
X207585000Y-97990000D02*
X205160000Y-97990000D01*
X207585000Y-97990000D02*
X207585000Y-107110000D01*
X207585000Y-107110000D02*
X206585000Y-108110000D01*
%TO.C,J5*%
X158220000Y-97990000D02*
X161003233Y-97990000D01*
X158220000Y-107110000D02*
X158220000Y-97990000D01*
X159220000Y-108110000D02*
X158220000Y-107110000D01*
X164003233Y-97990000D02*
X162306767Y-97990000D01*
X167003233Y-97990000D02*
X165306767Y-97990000D01*
X170003233Y-97990000D02*
X168306767Y-97990000D01*
X173003233Y-97990000D02*
X171306767Y-97990000D01*
X175645000Y-97990000D02*
X174306767Y-97990000D01*
X179090000Y-108110000D02*
X159220000Y-108110000D01*
X180090000Y-97990000D02*
X177665000Y-97990000D01*
X180090000Y-97990000D02*
X180090000Y-107110000D01*
X180090000Y-107110000D02*
X179090000Y-108110000D01*
%TD*%
M02*
