%TF.GenerationSoftware,KiCad,Pcbnew,9.0.0*%
%TF.CreationDate,2025-02-23T12:00:01-08:00*%
%TF.ProjectId,four_way_rotator,666f7572-5f77-4617-995f-726f7461746f,rev?*%
%TF.SameCoordinates,Original*%
%TF.FileFunction,Soldermask,Top*%
%TF.FilePolarity,Negative*%
%FSLAX46Y46*%
G04 Gerber Fmt 4.6, Leading zero omitted, Abs format (unit mm)*
G04 Created by KiCad (PCBNEW 9.0.0) date 2025-02-23 12:00:01*
%MOMM*%
%LPD*%
G01*
G04 APERTURE LIST*
G04 Aperture macros list*
%AMRoundRect*
0 Rectangle with rounded corners*
0 $1 Rounding radius*
0 $2 $3 $4 $5 $6 $7 $8 $9 X,Y pos of 4 corners*
0 Add a 4 corners polygon primitive as box body*
4,1,4,$2,$3,$4,$5,$6,$7,$8,$9,$2,$3,0*
0 Add four circle primitives for the rounded corners*
1,1,$1+$1,$2,$3*
1,1,$1+$1,$4,$5*
1,1,$1+$1,$6,$7*
1,1,$1+$1,$8,$9*
0 Add four rect primitives between the rounded corners*
20,1,$1+$1,$2,$3,$4,$5,0*
20,1,$1+$1,$4,$5,$6,$7,0*
20,1,$1+$1,$6,$7,$8,$9,0*
20,1,$1+$1,$8,$9,$2,$3,0*%
G04 Aperture macros list end*
%ADD10RoundRect,0.269169X-0.444131X-0.681631X0.444131X-0.681631X0.444131X0.681631X-0.444131X0.681631X0*%
%ADD11RoundRect,0.269169X-0.681631X0.444131X-0.681631X-0.444131X0.681631X-0.444131X0.681631X0.444131X0*%
%ADD12RoundRect,0.272087X0.353713X0.478713X-0.353713X0.478713X-0.353713X-0.478713X0.353713X-0.478713X0*%
%ADD13RoundRect,0.050800X-0.600000X-0.200000X0.600000X-0.200000X0.600000X0.200000X-0.600000X0.200000X0*%
%ADD14RoundRect,0.262900X-0.275400X-0.262900X0.275400X-0.262900X0.275400X0.262900X-0.275400X0.262900X0*%
%ADD15RoundRect,0.262900X-0.262900X0.325400X-0.262900X-0.325400X0.262900X-0.325400X0.262900X0.325400X0*%
%ADD16RoundRect,0.269169X0.444131X0.681631X-0.444131X0.681631X-0.444131X-0.681631X0.444131X-0.681631X0*%
%ADD17RoundRect,0.070000X-0.250000X1.100000X-0.250000X-1.100000X0.250000X-1.100000X0.250000X1.100000X0*%
%ADD18R,3.100000X2.400000*%
%ADD19C,0.770000*%
%ADD20RoundRect,0.185400X-0.222900X-0.185400X0.222900X-0.185400X0.222900X0.185400X-0.222900X0.185400X0*%
%ADD21RoundRect,0.272087X-0.478713X0.353713X-0.478713X-0.353713X0.478713X-0.353713X0.478713X0.353713X0*%
%ADD22RoundRect,0.050800X2.200000X0.900000X-2.200000X0.900000X-2.200000X-0.900000X2.200000X-0.900000X0*%
%ADD23O,4.101600X1.901600*%
%ADD24O,1.901600X4.101600*%
%ADD25C,3.101600*%
%ADD26RoundRect,0.266934X0.793866X-0.533866X0.793866X0.533866X-0.793866X0.533866X-0.793866X-0.533866X0*%
%ADD27O,2.121600X1.601600*%
%ADD28RoundRect,0.050800X0.500000X-1.575000X0.500000X1.575000X-0.500000X1.575000X-0.500000X-1.575000X0*%
%ADD29RoundRect,0.262900X-0.262900X0.275400X-0.262900X-0.275400X0.262900X-0.275400X0.262900X0.275400X0*%
%ADD30RoundRect,0.273091X0.327709X0.327709X-0.327709X0.327709X-0.327709X-0.327709X0.327709X-0.327709X0*%
%ADD31RoundRect,0.175400X0.850400X0.175400X-0.850400X0.175400X-0.850400X-0.175400X0.850400X-0.175400X0*%
%ADD32RoundRect,0.265875X0.584925X-1.534925X0.584925X1.534925X-0.584925X1.534925X-0.584925X-1.534925X0*%
%ADD33RoundRect,0.050800X0.800000X0.700000X-0.800000X0.700000X-0.800000X-0.700000X0.800000X-0.700000X0*%
%ADD34RoundRect,0.262900X0.275400X0.262900X-0.275400X0.262900X-0.275400X-0.262900X0.275400X-0.262900X0*%
%ADD35RoundRect,0.050800X0.200000X0.675000X-0.200000X0.675000X-0.200000X-0.675000X0.200000X-0.675000X0*%
%ADD36O,1.301600X2.001600*%
%ADD37RoundRect,0.050800X0.600000X0.950000X-0.600000X0.950000X-0.600000X-0.950000X0.600000X-0.950000X0*%
%ADD38C,1.551600*%
%ADD39RoundRect,0.050800X0.750000X0.950000X-0.750000X0.950000X-0.750000X-0.950000X0.750000X-0.950000X0*%
%ADD40RoundRect,0.175400X0.537900X0.175400X-0.537900X0.175400X-0.537900X-0.175400X0.537900X-0.175400X0*%
%ADD41RoundRect,0.262900X0.262900X-0.275400X0.262900X0.275400X-0.262900X0.275400X-0.262900X-0.275400X0*%
%ADD42RoundRect,0.185400X-0.185400X0.222900X-0.185400X-0.222900X0.185400X-0.222900X0.185400X0.222900X0*%
%ADD43RoundRect,0.050800X0.700000X-0.800000X0.700000X0.800000X-0.700000X0.800000X-0.700000X-0.800000X0*%
%ADD44RoundRect,0.272087X0.478713X-0.353713X0.478713X0.353713X-0.478713X0.353713X-0.478713X-0.353713X0*%
%ADD45RoundRect,0.262900X-0.325400X-0.262900X0.325400X-0.262900X0.325400X0.262900X-0.325400X0.262900X0*%
%ADD46RoundRect,0.262900X0.325400X0.262900X-0.325400X0.262900X-0.325400X-0.262900X0.325400X-0.262900X0*%
%ADD47RoundRect,0.050800X0.750000X0.450000X-0.750000X0.450000X-0.750000X-0.450000X0.750000X-0.450000X0*%
%ADD48RoundRect,0.050800X-0.750000X-0.450000X0.750000X-0.450000X0.750000X0.450000X-0.750000X0.450000X0*%
%ADD49RoundRect,0.050800X0.450000X-0.750000X0.450000X0.750000X-0.450000X0.750000X-0.450000X-0.750000X0*%
%ADD50C,0.701600*%
%ADD51RoundRect,0.050800X1.950000X-1.950000X1.950000X1.950000X-1.950000X1.950000X-1.950000X-1.950000X0*%
%ADD52RoundRect,0.400400X-0.750400X0.400400X-0.750400X-0.400400X0.750400X-0.400400X0.750400X0.400400X0*%
%ADD53RoundRect,0.273091X-0.327709X-0.327709X0.327709X-0.327709X0.327709X0.327709X-0.327709X0.327709X0*%
%ADD54RoundRect,0.271617X0.504183X-0.366683X0.504183X0.366683X-0.504183X0.366683X-0.504183X-0.366683X0*%
%ADD55RoundRect,0.266934X0.533866X0.793866X-0.533866X0.793866X-0.533866X-0.793866X0.533866X-0.793866X0*%
%ADD56O,1.601600X2.121600*%
G04 APERTURE END LIST*
D10*
%TO.C,C5*%
X165425000Y-80700000D03*
X162300000Y-80700000D03*
%TD*%
%TO.C,C7*%
X165425000Y-75700000D03*
X162300000Y-75700000D03*
%TD*%
%TO.C,C8*%
X165425000Y-78200000D03*
X162300000Y-78200000D03*
%TD*%
D11*
%TO.C,C10*%
X169800000Y-72325000D03*
X169800000Y-69200000D03*
%TD*%
D12*
%TO.C,D6*%
X113731127Y-91000000D03*
X111681127Y-91000000D03*
%TD*%
D13*
%TO.C,U3*%
X98500000Y-96700000D03*
X98500000Y-97350000D03*
X98500000Y-98000000D03*
X98500000Y-98650000D03*
X98500000Y-99300000D03*
X98500000Y-99950000D03*
X98500000Y-100600000D03*
X105400000Y-100600000D03*
X105400000Y-99950000D03*
X105400000Y-99300000D03*
X105400000Y-98650000D03*
X105400000Y-98000000D03*
X105400000Y-97350000D03*
X105400000Y-96700000D03*
%TD*%
D14*
%TO.C,R3*%
X101256127Y-81600000D03*
X103081127Y-81600000D03*
%TD*%
D15*
%TO.C,C6*%
X157800000Y-66050000D03*
X157800000Y-67775000D03*
%TD*%
D16*
%TO.C,C13*%
X101675000Y-93650000D03*
X98550000Y-93650000D03*
%TD*%
D14*
%TO.C,R4*%
X102831127Y-88600000D03*
X104656127Y-88600000D03*
%TD*%
%TO.C,R5*%
X102831127Y-86800000D03*
X104656127Y-86800000D03*
%TD*%
D17*
%TO.C,U5*%
X168345000Y-95925000D03*
D18*
X170250000Y-93050000D03*
D17*
X172155000Y-90175000D03*
X170885000Y-90175000D03*
X169615000Y-90175000D03*
X168345000Y-90175000D03*
X169615000Y-95925000D03*
X170885000Y-95925000D03*
X172155000Y-95925000D03*
D19*
X171550000Y-92400000D03*
X170250000Y-92400000D03*
X168950000Y-92400000D03*
X171550000Y-93700000D03*
X170250000Y-93700000D03*
X168950000Y-93700000D03*
%TD*%
D20*
%TO.C,R12*%
X140255000Y-100090000D03*
X141450000Y-100090000D03*
%TD*%
D21*
%TO.C,D2*%
X159500000Y-56050000D03*
X159500000Y-58100000D03*
%TD*%
D22*
%TO.C,J3*%
X178800000Y-69300000D03*
D23*
X178800000Y-63500000D03*
D24*
X174000000Y-66300000D03*
%TD*%
D25*
%TO.C,J4*%
X91450000Y-93450000D03*
D26*
X95770000Y-96450000D03*
D27*
X95770000Y-93450000D03*
X95770000Y-90450000D03*
%TD*%
D28*
%TO.C,J2*%
X129240000Y-78400000D03*
X129240000Y-73350000D03*
X131780000Y-78400000D03*
X131780000Y-73350000D03*
X134320000Y-78400000D03*
X134320000Y-73350000D03*
X136860000Y-78400000D03*
X136860000Y-73350000D03*
X139400000Y-78400000D03*
X139400000Y-73350000D03*
%TD*%
D29*
%TO.C,R14*%
X201450000Y-89425000D03*
X201450000Y-91250000D03*
%TD*%
D30*
%TO.C,D1*%
X150600000Y-62400000D03*
X147800000Y-62400000D03*
%TD*%
D31*
%TO.C,U2*%
X166842500Y-67930000D03*
X166842500Y-69200000D03*
X166842500Y-66660000D03*
X166842500Y-65390000D03*
X161892500Y-65390000D03*
X161892500Y-66660000D03*
X161892500Y-67930000D03*
X161892500Y-69200000D03*
%TD*%
D32*
%TO.C,C16*%
X161155000Y-95250000D03*
X161155000Y-89850000D03*
%TD*%
D33*
%TO.C,SW2*%
X144850000Y-93590000D03*
X152850000Y-93590000D03*
X144850000Y-98090000D03*
X152850000Y-98090000D03*
%TD*%
D11*
%TO.C,C17*%
X166155000Y-96332500D03*
X166155000Y-93207500D03*
%TD*%
D34*
%TO.C,R6*%
X103081127Y-83200000D03*
X101256127Y-83200000D03*
%TD*%
D35*
%TO.C,J1*%
X147200000Y-60000000D03*
X146550000Y-60000000D03*
X145900000Y-60000000D03*
X145250000Y-60000000D03*
X144600000Y-60000000D03*
D36*
X149400000Y-57300000D03*
D37*
X148800000Y-57300000D03*
D38*
X148400000Y-60000000D03*
D39*
X146900000Y-57300000D03*
X144900000Y-57300000D03*
D38*
X143400000Y-60000000D03*
D37*
X143000000Y-57300000D03*
D36*
X142400000Y-57300000D03*
%TD*%
D40*
%TO.C,U1*%
X107156127Y-81300000D03*
X107156127Y-83200000D03*
X107156127Y-82250000D03*
X104881127Y-81300000D03*
X104881127Y-82250000D03*
X104881127Y-83200000D03*
%TD*%
D41*
%TO.C,R2*%
X169900000Y-57712500D03*
X169900000Y-55887500D03*
%TD*%
D42*
%TO.C,R10*%
X107200000Y-98005000D03*
X107200000Y-99200000D03*
%TD*%
D41*
%TO.C,R7*%
X159800000Y-67825000D03*
X159800000Y-66000000D03*
%TD*%
D15*
%TO.C,C11*%
X169300000Y-65382500D03*
X169300000Y-67107500D03*
%TD*%
D14*
%TO.C,R8*%
X157712500Y-80700000D03*
X159537500Y-80700000D03*
%TD*%
D16*
%TO.C,C4*%
X109713627Y-86000000D03*
X106588627Y-86000000D03*
%TD*%
D11*
%TO.C,C19*%
X174355000Y-93207500D03*
X174355000Y-96332500D03*
%TD*%
D43*
%TO.C,SW1*%
X124800000Y-72800000D03*
X124800000Y-80800000D03*
X120300000Y-72800000D03*
X120300000Y-80800000D03*
%TD*%
D44*
%TO.C,D3*%
X171900000Y-58000000D03*
X171900000Y-55950000D03*
%TD*%
D16*
%TO.C,C3*%
X109713627Y-88400000D03*
X106588627Y-88400000D03*
%TD*%
D11*
%TO.C,C21*%
X193650000Y-96332500D03*
X193650000Y-93207500D03*
%TD*%
D14*
%TO.C,R9*%
X112038627Y-89200000D03*
X113863627Y-89200000D03*
%TD*%
D16*
%TO.C,C12*%
X109713627Y-90800000D03*
X106588627Y-90800000D03*
%TD*%
D11*
%TO.C,C20*%
X201850000Y-93207500D03*
X201850000Y-96332500D03*
%TD*%
D45*
%TO.C,C2*%
X102881127Y-85000000D03*
X104606127Y-85000000D03*
%TD*%
D46*
%TO.C,C9*%
X163895000Y-71200000D03*
X162170000Y-71200000D03*
%TD*%
D11*
%TO.C,C1*%
X109481127Y-80600000D03*
X109481127Y-83725000D03*
%TD*%
D12*
%TO.C,D5*%
X159850000Y-78700000D03*
X157800000Y-78700000D03*
%TD*%
D47*
%TO.C,U4*%
X120050000Y-92210000D03*
X120050000Y-93480000D03*
X137550000Y-101100000D03*
X137550000Y-99830000D03*
X137550000Y-98560000D03*
X137550000Y-97290000D03*
X137550000Y-96020000D03*
X137550000Y-94750000D03*
X137550000Y-93480000D03*
X137550000Y-92210000D03*
X137550000Y-90940000D03*
X137550000Y-89670000D03*
X137550000Y-88400000D03*
X137550000Y-87130000D03*
X137550000Y-85860000D03*
D48*
X137550000Y-84590000D03*
D49*
X135785000Y-83340000D03*
X134515000Y-83340000D03*
X133245000Y-83340000D03*
X131975000Y-83340000D03*
X130705000Y-83340000D03*
X129435000Y-83340000D03*
X128165000Y-83340000D03*
X126895000Y-83340000D03*
X125625000Y-83340000D03*
X124355000Y-83340000D03*
X123085000Y-83340000D03*
X121815000Y-83340000D03*
D47*
X120050000Y-84590000D03*
X120050000Y-85860000D03*
X120050000Y-87130000D03*
X120050000Y-88400000D03*
X120050000Y-89670000D03*
X120050000Y-90940000D03*
X120050000Y-94750000D03*
X120050000Y-96020000D03*
X120050000Y-97290000D03*
X120050000Y-98560000D03*
X120050000Y-99830000D03*
X120050000Y-101100000D03*
D50*
X131700000Y-94080000D03*
X131700000Y-92680000D03*
X131000000Y-94780000D03*
X131000000Y-93380000D03*
X131000000Y-91980000D03*
X130300000Y-94080000D03*
D51*
X130300000Y-93380000D03*
D50*
X130300000Y-92680000D03*
X129600000Y-94780000D03*
X129600000Y-93380000D03*
X129600000Y-91980000D03*
X128900000Y-94080000D03*
X128900000Y-92680000D03*
%TD*%
D41*
%TO.C,R1*%
X157500000Y-57700000D03*
X157500000Y-55875000D03*
%TD*%
D10*
%TO.C,C14*%
X143325000Y-100690000D03*
X146450000Y-100690000D03*
%TD*%
D29*
%TO.C,R11*%
X140450000Y-96677500D03*
X140450000Y-98502500D03*
%TD*%
D52*
%TO.C,L2*%
X157800000Y-70700000D03*
X157800000Y-76200000D03*
%TD*%
D29*
%TO.C,R13*%
X173955000Y-89425000D03*
X173955000Y-91250000D03*
%TD*%
D32*
%TO.C,C18*%
X188650000Y-95250000D03*
X188650000Y-89850000D03*
%TD*%
D53*
%TO.C,D4*%
X162227500Y-73200000D03*
X165027500Y-73200000D03*
%TD*%
D17*
%TO.C,U6*%
X195840000Y-95925000D03*
D18*
X197745000Y-93050000D03*
D17*
X199650000Y-90175000D03*
X198380000Y-90175000D03*
X197110000Y-90175000D03*
X195840000Y-90175000D03*
X197110000Y-95925000D03*
X198380000Y-95925000D03*
X199650000Y-95925000D03*
D19*
X199045000Y-92400000D03*
X197745000Y-92400000D03*
X196445000Y-92400000D03*
X199045000Y-93700000D03*
X197745000Y-93700000D03*
X196445000Y-93700000D03*
%TD*%
D52*
%TO.C,L1*%
X114081127Y-81800000D03*
X114081127Y-87300000D03*
%TD*%
D54*
%TO.C,C15*%
X142450000Y-98397500D03*
X142450000Y-96322500D03*
%TD*%
D25*
%TO.C,J6*%
X202000000Y-103400000D03*
X191300000Y-103400000D03*
D55*
X204150000Y-99080000D03*
D56*
X201150000Y-99080000D03*
X198150000Y-99080000D03*
X195150000Y-99080000D03*
X192150000Y-99080000D03*
X189150000Y-99080000D03*
%TD*%
%TO.C,J5*%
X167655000Y-99080000D03*
X170655000Y-99080000D03*
D25*
X174505000Y-103400000D03*
X163805000Y-103400000D03*
D55*
X176655000Y-99080000D03*
D56*
X173655000Y-99080000D03*
X164655000Y-99080000D03*
X161655000Y-99080000D03*
%TD*%
M02*
