%TF.GenerationSoftware,KiCad,Pcbnew,9.0.0*%
%TF.CreationDate,2025-02-23T12:00:01-08:00*%
%TF.ProjectId,four_way_rotator,666f7572-5f77-4617-995f-726f7461746f,rev?*%
%TF.SameCoordinates,Original*%
%TF.FileFunction,Profile,NP*%
%FSLAX46Y46*%
G04 Gerber Fmt 4.6, Leading zero omitted, Abs format (unit mm)*
G04 Created by KiCad (PCBNEW 9.0.0) date 2025-02-23 12:00:01*
%MOMM*%
%LPD*%
G01*
G04 APERTURE LIST*
%TA.AperFunction,Profile*%
%ADD10C,0.200000*%
%TD*%
G04 APERTURE END LIST*
D10*
X216048000Y-78912000D02*
G75*
G02*
X202586000Y-65450000I0J13462000D01*
G01*
X110130000Y-60370000D02*
X110130000Y-65449998D01*
X196998000Y-54782000D02*
G75*
G02*
X202586000Y-60370000I0J-5588000D01*
G01*
X226716000Y-105582000D02*
G75*
G02*
X223541000Y-108757000I-3175000J0D01*
G01*
X221128000Y-78912000D02*
G75*
G02*
X226716000Y-84500000I0J-5588000D01*
G01*
X89175000Y-108757000D02*
G75*
G02*
X86000000Y-105582000I0J3175000D01*
G01*
X110130000Y-65449998D02*
G75*
G02*
X96667998Y-78912000I-13462000J-2D01*
G01*
X110130000Y-60370000D02*
G75*
G02*
X115718000Y-54782000I5588000J0D01*
G01*
X96667998Y-78912000D02*
X91588000Y-78912000D01*
X196998000Y-54782000D02*
X115718000Y-54782000D01*
X90572000Y-103550000D02*
G75*
G02*
X87524000Y-103550000I-1524000J0D01*
G01*
X87524000Y-103550000D02*
G75*
G02*
X90572000Y-103550000I1524000J0D01*
G01*
X202586000Y-60370000D02*
X202586000Y-65450000D01*
X216048000Y-78912000D02*
X221128000Y-78912000D01*
X86000000Y-84500000D02*
X86000000Y-105582000D01*
X191641871Y-57830000D02*
G75*
G02*
X188593871Y-57830000I-1524000J0D01*
G01*
X188593871Y-57830000D02*
G75*
G02*
X191641871Y-57830000I1524000J0D01*
G01*
X225192000Y-103550000D02*
G75*
G02*
X222144000Y-103550000I-1524000J0D01*
G01*
X222144000Y-103550000D02*
G75*
G02*
X225192000Y-103550000I1524000J0D01*
G01*
X124122129Y-57830000D02*
G75*
G02*
X121074129Y-57830000I-1524000J0D01*
G01*
X121074129Y-57830000D02*
G75*
G02*
X124122129Y-57830000I1524000J0D01*
G01*
X226716000Y-84500000D02*
X226716000Y-105582000D01*
X86000000Y-84500000D02*
G75*
G02*
X91588000Y-78912000I5588000J0D01*
G01*
X89175000Y-108757000D02*
X223541000Y-108757000D01*
M02*
